<svg width="110" height="48" fill="none" xmlns="http://www.w3.org/2000/svg"><path fill-rule="evenodd" clip-rule="evenodd" d="M67.935 37.807C61.57 42.497 52.348 45 44.406 45c-11.135 0-21.159-4.119-28.743-10.968-.596-.539-.062-1.273.653-.854 8.185 4.762 18.304 7.627 28.758 7.627 7.05 0 14.805-1.459 21.936-4.485 1.078-.458 1.978.705.925 1.487Z" fill="#F90"/><path fill-rule="evenodd" clip-rule="evenodd" d="M70.58 34.78c-.81-1.04-5.376-.49-7.426-.248-.624.076-.72-.467-.157-.858 3.637-2.56 9.605-1.82 10.3-.963.697.863-.18 6.845-3.598 9.7-.525.44-1.025.206-.792-.376.768-1.916 2.489-6.211 1.674-7.255Z" fill="#F90"/><path fill-rule="evenodd" clip-rule="evenodd" d="M63.297 15.604v-2.489c0-.376.286-.629.63-.629h11.14c.357 0 .643.258.643.63v2.13c-.005.358-.305.825-.84 1.564l-5.772 8.241c2.145-.052 4.41.267 6.354 1.364.439.247.558.61.591.967v2.655c0 .363-.4.787-.82.568-3.427-1.798-7.979-1.993-11.768.019-.386.21-.792-.21-.792-.572V27.53c0-.405.005-1.096.41-1.711l6.688-9.59h-5.82c-.358 0-.644-.254-.644-.625ZM22.661 31.129h-3.39a.64.64 0 0 1-.605-.577V13.158c0-.348.291-.624.654-.624h3.16a.638.638 0 0 1 .615.581v2.274h.062c.824-2.197 2.374-3.222 4.461-3.222 2.122 0 3.447 1.025 4.4 3.222.82-2.197 2.684-3.222 4.681-3.222 1.42 0 2.974.586 3.923 1.902 1.072 1.463.853 3.59.853 5.453L41.47 30.5a.64.64 0 0 1-.653.629h-3.384a.644.644 0 0 1-.61-.63v-9.218c0-.734.067-2.565-.095-3.26-.253-1.168-1.01-1.497-1.993-1.497-.82 0-1.678.548-2.026 1.425-.348.877-.314 2.345-.314 3.332V30.5a.64.64 0 0 1-.653.629h-3.385a.64.64 0 0 1-.61-.63l-.005-9.218c0-1.94.32-4.796-2.088-4.796-2.435 0-2.34 2.784-2.34 4.796V30.5a.64.64 0 0 1-.653.629ZM85.3 12.167c5.03 0 7.751 4.318 7.751 9.81 0 5.305-3.008 9.514-7.75 9.514-4.939 0-7.627-4.319-7.627-9.7 0-5.415 2.721-9.624 7.626-9.624Zm.029 3.551c-2.498 0-2.655 3.404-2.655 5.525 0 2.126-.034 6.664 2.626 6.664 2.627 0 2.75-3.661 2.75-5.892 0-1.468-.061-3.222-.505-4.614-.38-1.211-1.139-1.683-2.216-1.683Zm14.243 15.411h-3.375a.644.644 0 0 1-.61-.63l-.005-17.398a.64.64 0 0 1 .653-.567h3.142a.649.649 0 0 1 .605.486v2.66h.062c.948-2.379 2.278-3.513 4.619-3.513 1.52 0 3.003.548 3.956 2.05.887 1.391.887 3.732.887 5.414v10.95c-.038.305-.32.548-.653.548h-3.399c-.31-.024-.567-.253-.6-.548v-9.448c0-1.902.219-4.686-2.122-4.686-.824 0-1.582.553-1.959 1.392-.476 1.063-.538 2.122-.538 3.294V30.5a.652.652 0 0 1-.663.629ZM54.417 22.82c0 1.32.033 2.422-.634 3.595-.539.953-1.397 1.54-2.345 1.54-1.302 0-2.064-.992-2.064-2.456 0-2.888 2.588-3.413 5.043-3.413v.734Zm3.418 8.261a.708.708 0 0 1-.801.081c-1.125-.934-1.33-1.368-1.945-2.26-1.859 1.898-3.18 2.465-5.587 2.465-2.855 0-5.071-1.759-5.071-5.281 0-2.75 1.487-4.624 3.613-5.54 1.84-.81 4.409-.953 6.373-1.177v-.438c0-.806.062-1.76-.415-2.455-.41-.624-1.201-.882-1.902-.882-1.291 0-2.44.663-2.721 2.036-.058.305-.282.605-.592.62l-3.284-.354c-.276-.062-.586-.286-.505-.71C45.75 13.201 49.355 12 52.577 12c1.65 0 3.804.438 5.105 1.687 1.65 1.54 1.492 3.595 1.492 5.83V24.8c0 1.587.658 2.283 1.278 3.14.214.306.262.673-.015.902-.69.577-1.92 1.65-2.598 2.25l-.004-.01ZM9.986 22.82c0 1.32.034 2.422-.634 3.595-.538.953-1.392 1.54-2.345 1.54-1.301 0-2.06-.992-2.06-2.456 0-2.888 2.59-3.413 5.04-3.413v.734Zm3.418 8.261a.708.708 0 0 1-.8.081c-1.126-.934-1.326-1.368-1.946-2.26C8.8 30.8 7.484 31.368 5.072 31.368 2.222 31.367 0 29.608 0 26.086c0-2.75 1.492-4.624 3.613-5.54 1.84-.81 4.41-.953 6.373-1.177v-.438c0-.806.062-1.76-.41-2.455-.414-.624-1.206-.882-1.902-.882-1.291 0-2.445.663-2.726 2.036-.057.305-.281.605-.586.62l-3.29-.354c-.276-.062-.581-.286-.505-.71C1.325 13.201 4.924 12 8.147 12c1.649 0 3.803.438 5.104 1.687 1.65 1.54 1.492 3.595 1.492 5.83V24.8c0 1.587.658 2.283 1.278 3.14.22.306.267.673-.01.902-.69.577-1.92 1.65-2.597 2.25l-.01-.01Z" fill="#000"/></svg>