<svg width="54" height="54" fill="none" xmlns="http://www.w3.org/2000/svg"><g clip-path="url(#a)"><path d="M27 52.875c14.29 0 25.875-11.585 25.875-25.875S41.29 1.125 27 1.125 1.125 12.71 1.125 27 12.71 52.875 27 52.875Z" fill="#FCD900"/><path d="M39.375 18.225v6.244A17.91 17.91 0 0 1 27 41.625a17.899 17.899 0 0 1-12.375-17.156v-6.244L27 12.375l12.375 5.85Z" fill="#fff"/><path d="M54 25.875a27 27 0 1 0 0 2.25v-2.25Zm-2.25 0c-12.555 0-11.25.135-11.25-.315v-8.044l-1.406-.641a34.43 34.43 0 0 0-2.509-6.469 39.48 39.48 0 0 0 6.818-1.878 24.595 24.595 0 0 1 8.347 17.347Zm-17.505 17.37a63.572 63.572 0 0 0-7.076-.495 18.652 18.652 0 0 0 10.125-7.515 33.932 33.932 0 0 1-3.049 8.01Zm-17.516-8.01a18.574 18.574 0 0 0 9.934 7.515c.877.292-.923-.259-6.908.551a33.561 33.561 0 0 1-3.026-8.066Zm3.026-24.48c2.328.306 4.672.471 7.02.495-.9.428 3.308-1.575-9.101 4.297a32.693 32.693 0 0 1 2.081-4.792Zm16.56 4.781-9.079-4.286a54.677 54.677 0 0 0 7.009-.484 32.03 32.03 0 0 1 2.07 4.77ZM15.75 18.934 27 13.624l11.25 5.31v6.941A16.661 16.661 0 0 1 27 40.5a16.66 16.66 0 0 1-11.194-14.625c-.056-.832-.056-2.014-.056-6.941ZM41.344 6.85a35.785 35.785 0 0 1-5.884 1.463 34.226 34.226 0 0 0-4.073-5.625 24.558 24.558 0 0 1 9.957 4.162Zm-13.399-4.6a34.501 34.501 0 0 1 5.108 6.379c-4.022.47-8.084.47-12.105 0a35.38 35.38 0 0 1 5.096-6.379 17.864 17.864 0 0 1 1.901 0ZM12.656 6.851a24.559 24.559 0 0 1 9.957-4.207 34.22 34.22 0 0 0-4.073 5.625 39.073 39.073 0 0 1-5.884-1.418Zm-2.081 1.665a43.98 43.98 0 0 0 6.84 1.868 36.458 36.458 0 0 0-2.52 6.491l-1.395.641v8.044c0 .45 1.328.315-11.25.315a24.626 24.626 0 0 1 8.325-17.359ZM2.25 28.125H13.5a36.664 36.664 0 0 0 3.881 15.48 48.597 48.597 0 0 0-6.806 1.89 24.592 24.592 0 0 1-8.325-17.37Zm10.373 19.024a35.773 35.773 0 0 1 5.883-1.463 34.23 34.23 0 0 0 4.073 5.625 24.56 24.56 0 0 1-9.923-4.162h-.034Zm13.42 4.601a35.373 35.373 0 0 1-5.095-6.379c4.02-.49 8.084-.49 12.105 0a35.662 35.662 0 0 1-5.108 6.379c-.633.034-1.268.034-1.901 0Zm15.3-4.579a24.561 24.561 0 0 1-9.956 4.208 34.23 34.23 0 0 0 4.073-5.625c1.994.316 3.96.782 5.884 1.395v.022Zm2.082-1.665a45.083 45.083 0 0 0-6.84-1.856A36.687 36.687 0 0 0 40.5 28.125h11.25a24.627 24.627 0 0 1-8.325 17.359v.022Z" fill="#000"/><path d="M24.75 33.086 19.451 27.8l1.599-1.6 3.701 3.713 8.201-8.213 1.598 1.6-9.799 9.787Z" fill="#FCD900"/></g><defs><clipPath id="a"><path fill="#fff" d="M0 0h54v54H0z"/></clipPath></defs></svg>