<svg width="65" height="65" fill="none" xmlns="http://www.w3.org/2000/svg"><path d="M32.5 16.25a5.417 5.417 0 1 0 0-10.833 5.417 5.417 0 0 0 0 10.833Z" fill="#FCD900"/><path d="M46.042 21.667h-25.73v8.125h25.73v-8.125Z" fill="#7C6F66"/><path d="M50.104 35.208v25.73a2.708 2.708 0 0 1-2.708 2.708H18.958a2.708 2.708 0 0 1-2.708-2.709V35.209l4.063-5.416h25.729l4.062 5.416Z" fill="#fff"/><path d="M48.75 44.688v17.604H17.604V50.104a4.062 4.062 0 0 1 5.823-3.656 4.062 4.062 0 0 1-.406-1.76 4.063 4.063 0 0 1 7.448-2.248 4.063 4.063 0 0 1 4.74-1.571 4.062 4.062 0 1 1 8.124 0 4.063 4.063 0 0 1 5.417 3.819Z" fill="#FCD900"/><path d="M32.5 17.604a6.77 6.77 0 0 0 4.063-12.187V1.354h-2.709v2.844A6.77 6.77 0 1 0 32.5 17.604Zm0-10.833a4.063 4.063 0 1 1 0 8.125 4.063 4.063 0 0 1 0-8.125ZM28.438 0h-2.709v4.063h2.709V0Zm18.958 29.345v-9.032H18.958v9.032l-4.062 5.416v26.176A4.063 4.063 0 0 0 18.958 65h28.438a4.063 4.063 0 0 0 4.062-4.063V34.763l-4.062-5.417Zm-25.73-6.324h23.021v5.416h-23.02v-5.416ZM48.75 60.937a1.354 1.354 0 0 1-1.354 1.355H18.958a1.354 1.354 0 0 1-1.354-1.355V35.656l3.386-4.51h24.375l3.385 4.51v25.282Z" fill="#000"/></svg>