<svg width="54" height="54" fill="none" xmlns="http://www.w3.org/2000/svg"><g clip-path="url(#a)"><path d="M24.75 50.625c13.048 0 23.625-10.577 23.625-23.625S37.798 3.375 24.75 3.375 1.125 13.952 1.125 27 11.702 50.625 24.75 50.625Z" fill="#7C6F66"/><path d="M24.75 43.875c9.32 0 16.875-7.555 16.875-16.875S34.07 10.125 24.75 10.125 7.875 17.68 7.875 27 15.43 43.875 24.75 43.875Z" fill="#fff"/><path d="M24.75 37.125c5.592 0 10.125-4.533 10.125-10.125S30.342 16.875 24.75 16.875 14.625 21.408 14.625 27s4.533 10.125 10.125 10.125Z" fill="#7C6F66"/><path d="M24.75 31.5a4.5 4.5 0 1 0 0-9 4.5 4.5 0 0 0 0 9Zm16.875 21.375c6.213 0 11.25-5.037 11.25-11.25s-5.037-11.25-11.25-11.25-11.25 5.037-11.25 11.25 5.037 11.25 11.25 11.25Z" fill="#FCD900"/><path d="M38.25 46.586 36.664 45l3.836-3.836V33.75h2.25v8.336l-4.5 4.5Z" fill="#fff"/><path d="M37.125 14.625v-6.75L42.75 2.25l1.125 5.625-6.75 6.75Z" fill="#FCD900"/><path d="M37.125 14.625h6.75L49.5 9l-5.625-1.125-6.75 6.75Z" fill="#FCD900"/><path d="M49.039 31.714a24.649 24.649 0 0 0-3.128-17.539l5.839-5.861-5.625-1.125 1.586-1.564-1.586-1.586-1.553 1.586L43.447 0l-5.872 5.839C21.229-4.073 0 7.66 0 27a24.75 24.75 0 0 0 32.873 23.366A12.374 12.374 0 0 0 41.625 54c11.813 0 16.943-15.142 7.414-22.286ZM47.25 9.686 43.414 13.5h-3.578l1.598-1.586 1.586-1.575 1.226-1.215 3.004.562ZM42.064 4.5l.585 2.97-1.215 1.26-1.575 1.586-1.609 1.598V8.336L42.064 4.5ZM2.25 27A22.5 22.5 0 0 1 36 7.526v6.638L23.951 26.2a1.13 1.13 0 1 0 1.599 1.6l12.036-12.05h6.638a22.32 22.32 0 0 1 2.756 14.715 12.375 12.375 0 0 0-15.637 18A22.5 22.5 0 0 1 2.25 27Zm39.375 24.75a10.126 10.126 0 1 1-.01-20.251 10.126 10.126 0 0 1 .01 20.251Z" fill="#000"/></g><defs><clipPath id="a"><path fill="#fff" d="M0 0h54v54H0z"/></clipPath></defs></svg>