<svg width="59" height="59" fill="none" xmlns="http://www.w3.org/2000/svg"><path d="M29.5 0C45.792 0 59 13.208 59 29.5S45.792 59 29.5 59 0 45.792 0 29.5 13.208 0 29.5 0Z" fill="#FCD900"/><path d="m37.735 47.61.002-.002-.006-.012a.94.94 0 0 0-.112-.203l-6.856-12.496-1.256.433-1.256-.433-6.856 12.495a.916.916 0 0 0-.111.203l-.007.012.003.002a.916.916 0 0 0-.062.324.926.926 0 0 0 1.782.35l5.585-10.235v8.997c0 .499.413.904.922.904a.914.914 0 0 0 .922-.904v-8.963l.008.016v-.035l5.577 10.221a.926.926 0 0 0 1.783-.35.903.903 0 0 0-.062-.325Z" fill="#334D5D"/><path d="M27.195 34.57h4.61a1.844 1.844 0 0 1 0 3.688h-4.61a1.844 1.844 0 0 1 0-3.688Z" fill="#2F3A40"/><path d="M45.106 24.43c-.491 0-.923.109-1.185.377l.001-.004-.013.014-.006.007-2.419 2.503v-3.82c0-.763-.62-1.382-1.382-1.382H17.055c-.764 0-1.383.619-1.383 1.383v11.984c0 .764.62 1.383 1.383 1.383h23.047c.763 0 1.382-.619 1.382-1.383v-3.819l2.42 2.506h.001l.008.01-.001-.003c.26.274.698.384 1.194.384.8 0 .988-.648.988-1.448v-7.244c0-.8-.188-1.448-.988-1.448Z" fill="#334D5D"/><path d="M15.672 32.266h25.812v.46H15.672v-.46Z" fill="#5F727F"/><path d="M34.34 14.29a6.22 6.22 0 0 0-5.762 3.877 6.221 6.221 0 0 0-11.984 2.345 6.222 6.222 0 0 0 11.984 2.345 6.22 6.22 0 0 0 11.985-2.345 6.223 6.223 0 0 0-6.223-6.223Z" fill="#FFFCF6"/><path d="M22.816 15.672a4.84 4.84 0 1 0 0 9.68 4.84 4.84 0 0 0 0-9.68Zm11.524 0a4.84 4.84 0 1 0 0 9.68 4.84 4.84 0 0 0 0-9.68Z" fill="#CCD0D2"/><path d="M22.816 16.594a.691.691 0 1 0 0 1.382.691.691 0 0 0 0-1.382Zm3.227 3.226a.692.692 0 1 0 0 1.384.692.692 0 0 0 0-1.384Zm-3.227 3.227a.692.692 0 1 0 0 1.383.692.692 0 0 0 0-1.383Zm-2.535-2.535a.692.692 0 1 0-1.383 0 .692.692 0 0 0 1.383 0Zm.23-2.996a.692.692 0 1 0 .001 1.383.692.692 0 0 0 0-1.383Zm4.61 1.382a.691.691 0 1 0 0-1.382.691.691 0 0 0 0 1.382Zm0 3.227a.692.692 0 1 0 0 1.383.692.692 0 0 0 0-1.383Zm-4.61 0a.692.692 0 1 0 .001 1.383.692.692 0 0 0 0-1.383Zm13.829-5.531a.691.691 0 1 0 0 1.382.691.691 0 0 0 0-1.382Zm3.226 3.226a.692.692 0 1 0 0 1.384.692.692 0 0 0 0-1.384Zm-3.226 3.227a.692.692 0 1 0 0 1.383.692.692 0 0 0 0-1.383Zm-2.535-2.535a.692.692 0 1 0-1.384 0 .692.692 0 0 0 1.384 0Zm.23-2.996a.692.692 0 1 0 0 1.383.692.692 0 0 0 0-1.383Zm4.61 1.382a.691.691 0 1 0 0-1.382.691.691 0 0 0 0 1.382Zm0 3.227a.692.692 0 1 0 0 1.383.692.692 0 0 0 0-1.383Zm-4.61 0a.692.692 0 1 0 0 1.383.692.692 0 0 0 0-1.383Z" fill="#868686"/><path d="M15.672 35.492c0 .764.62 1.383 1.383 1.383h23.047c.763 0 1.382-.619 1.382-1.383v-2.765H15.672v2.765Z" fill="#475A66"/><path d="M18.207 34.11a.692.692 0 1 1 0 1.383.692.692 0 0 1 0-1.384Z" fill="#45B39C"/><path d="m42.406 26.373-.922.954v4.346l.922.954v-6.254Z" fill="#2F3A40"/></svg>