<svg width="54" height="54" viewBox="0 0 54 54" fill="none" xmlns="http://www.w3.org/2000/svg">
<g clip-path="url(#clip0_443_775)">
<path d="M27 52.875C41.2904 52.875 52.875 41.2904 52.875 27C52.875 12.7096 41.2904 1.125 27 1.125C12.7096 1.125 1.125 12.7096 1.125 27C1.125 41.2904 12.7096 52.875 27 52.875Z" fill="#FCD900"/>
<path d="M39.375 18.225V24.4688C39.4011 28.2719 38.2158 31.9845 35.991 35.069C33.7661 38.1536 30.617 40.4497 27 41.625C23.382 40.4513 20.232 38.1555 18.0068 35.0706C15.7817 31.9858 14.5972 28.2723 14.625 24.4688V18.225L27 12.375L39.375 18.225Z" fill="white"/>
<path d="M54 25.875C53.7057 18.8177 50.6575 12.1568 45.5093 7.32075C40.361 2.48471 33.5227 -0.141317 26.4608 0.00586942C19.3989 0.153056 12.6759 3.06173 7.73366 8.10809C2.79139 13.1544 0.0234375 19.9366 0.0234375 27C0.0234375 34.0634 2.79139 40.8456 7.73366 45.8919C12.6759 50.9383 19.3989 53.847 26.4608 53.9941C33.5227 54.1413 40.361 51.5153 45.5093 46.6793C50.6575 41.8432 53.7057 35.1823 54 28.125V25.875ZM51.75 25.875C39.195 25.875 40.5 26.01 40.5 25.56C40.5 24.7163 40.5 28.1138 40.5 17.5163L39.0937 16.875C38.4774 14.6398 37.6369 12.4725 36.585 10.4063C38.9091 9.98522 41.1908 9.35645 43.4025 8.52751C45.889 10.709 47.9099 13.3698 49.3443 16.3505C50.7786 19.3312 51.5968 22.5707 51.75 25.875ZM34.245 43.245C31.8973 42.9484 29.5349 42.7832 27.1687 42.75C31.3138 41.4963 34.8934 38.8394 37.2937 35.235C36.6201 38.0231 35.5957 40.7146 34.245 43.245ZM16.7287 35.235C19.0763 38.8087 22.5849 41.4631 26.6625 42.75C27.54 43.0425 25.74 42.4913 19.755 43.3013C18.4039 40.7537 17.3867 38.0426 16.7287 35.235ZM19.755 10.755C22.0829 11.0611 24.4272 11.2264 26.775 11.25C25.875 11.6775 30.0825 9.67501 17.6737 15.5475C18.2385 13.897 18.9345 12.2944 19.755 10.755ZM36.315 15.5363L27.2362 11.25C29.5804 11.2392 31.9215 11.0776 34.245 10.7663C35.0631 12.2975 35.7554 13.8928 36.315 15.5363ZM15.75 18.9338L27 13.6238L38.25 18.9338C38.25 23.625 38.25 25.155 38.25 25.875C38.0241 29.1499 36.8358 32.2851 34.8343 34.887C32.8329 37.4889 30.1074 39.4416 27 40.5C23.9031 39.4326 21.1896 37.4759 19.1987 34.8747C17.2078 32.2735 16.0278 29.1432 15.8062 25.875C15.75 25.0425 15.75 23.8613 15.75 18.9338ZM41.3437 6.85126C39.4274 7.50431 37.4591 7.99357 35.46 8.31376C34.2967 6.30552 32.9322 4.42082 31.3875 2.68876C34.9738 3.32093 38.3746 4.74275 41.3437 6.85126ZM27.945 2.25001C29.8942 4.16644 31.6087 6.3077 33.0525 8.62876C29.0312 9.09921 24.9688 9.09921 20.9475 8.62876C22.3944 6.31297 24.1045 4.17247 26.0437 2.25001C26.677 2.21626 27.3117 2.21626 27.945 2.25001ZM12.6562 6.85126C15.6213 4.72677 19.0225 3.28947 22.6125 2.64376C21.0678 4.37582 19.7032 6.26052 18.54 8.26876C16.545 7.94909 14.5779 7.47517 12.6562 6.85126ZM10.575 8.51626C12.801 9.32185 15.0884 9.94637 17.415 10.3838C16.3698 12.4622 15.526 14.6358 14.895 16.875L13.5 17.5163C13.5 23.8725 13.5 24.75 13.5 25.56C13.5 26.01 14.8275 25.875 2.24999 25.875C2.40075 22.5708 3.2156 19.3308 4.64592 16.3484C6.07624 13.366 8.0927 10.7023 10.575 8.51626ZM2.24999 28.125H13.5C13.6414 33.5074 14.9665 38.7926 17.3812 43.605C15.0696 44.0691 12.7949 44.7007 10.575 45.495C8.08988 43.3089 6.07162 40.6437 4.64113 37.659C3.21063 34.6743 2.39735 31.4315 2.24999 28.125ZM12.6225 47.1488C14.5388 46.4957 16.5072 46.0064 18.5062 45.6863C19.6695 47.6945 21.034 49.5792 22.5787 51.3113C19.0042 50.6743 15.6154 49.2527 12.6562 47.1488H12.6225ZM26.0437 51.75C24.1045 49.8276 22.3943 47.6871 20.9475 45.3713C24.9676 44.8814 29.0324 44.8814 33.0525 45.3713C31.6 47.6862 29.8863 49.8265 27.945 51.75C27.3117 51.7838 26.677 51.7838 26.0437 51.75ZM41.3437 47.1713C38.3786 49.2957 34.9775 50.733 31.3875 51.3788C32.9322 49.6467 34.2967 47.762 35.46 45.7538C37.4536 46.0696 39.4205 46.5359 41.3437 47.1488V47.1713ZM43.425 45.5063C41.1972 44.709 38.9102 44.0883 36.585 43.65C39.0171 38.8264 40.3539 33.5251 40.5 28.125H51.75C51.5992 31.4292 50.7844 34.6692 49.3541 37.6516C47.9237 40.634 45.9073 43.2977 43.425 45.4838V45.5063Z" fill="black"/>
<path d="M24.75 33.0862L19.4512 27.7987L21.0487 26.2012L24.75 29.9137L32.9512 21.7012L34.5487 23.2987L24.75 33.0862Z" fill="#FCD900"/>
</g>
<defs>
<clipPath id="clip0_443_775">
<rect width="54" height="54" fill="white"/>
</clipPath>
</defs>
</svg>
