<svg width="65" height="65" viewBox="0 0 65 65" fill="none" xmlns="http://www.w3.org/2000/svg">
<path d="M32.5 16.25C35.4916 16.25 37.9167 13.8249 37.9167 10.8334C37.9167 7.84181 35.4916 5.41669 32.5 5.41669C29.5085 5.41669 27.0833 7.84181 27.0833 10.8334C27.0833 13.8249 29.5085 16.25 32.5 16.25Z" fill="#FCD900"/>
<path d="M46.0417 21.6667H20.3125V29.7917H46.0417V21.6667Z" fill="#7C6F66"/>
<path d="M50.1042 35.2084V60.9375C50.1042 61.6558 49.8188 62.3447 49.3109 62.8526C48.803 63.3605 48.1141 63.6459 47.3958 63.6459H18.9583C18.24 63.6459 17.5512 63.3605 17.0433 62.8526C16.5353 62.3447 16.25 61.6558 16.25 60.9375V35.2084L20.3125 29.7917H46.0417L50.1042 35.2084Z" fill="white"/>
<path d="M48.75 44.6875V62.2917H17.6042V50.1042C17.605 49.4175 17.7799 48.7421 18.1126 48.1413C18.4452 47.5406 18.9248 47.0339 19.5063 46.6687C20.0879 46.3035 20.7526 46.0917 21.4383 46.0531C22.1239 46.0145 22.8082 46.1504 23.4271 46.4479C23.1612 45.8991 23.0224 45.2974 23.0208 44.6875C23.0203 43.8146 23.301 42.9648 23.8213 42.2638C24.3416 41.5629 25.0738 41.0482 25.9095 40.796C26.7452 40.5438 27.6399 40.5675 28.461 40.8635C29.2822 41.1595 29.9862 41.7122 30.4687 42.4396C30.9712 41.6875 31.7102 41.1246 32.5687 40.8401C33.4272 40.5556 34.3562 40.5656 35.2083 40.8688C35.2083 39.7913 35.6363 38.758 36.3982 37.9962C37.1601 37.2343 38.1934 36.8063 39.2708 36.8063C40.3483 36.8063 41.3816 37.2343 42.1434 37.9962C42.9053 38.758 43.3333 39.7913 43.3333 40.8688C43.9452 40.6525 44.5999 40.5859 45.2428 40.6746C45.8857 40.7633 46.4979 41.0047 47.0283 41.3786C47.5587 41.7526 47.9918 42.2481 48.2914 42.8238C48.5909 43.3995 48.7482 44.0386 48.75 44.6875Z" fill="#FCD900"/>
<path d="M32.5 17.6042C33.9211 17.6042 35.3061 17.1571 36.459 16.3261C37.6118 15.4952 38.474 14.3226 38.9234 12.9745C39.3728 11.6263 39.3866 10.1709 38.9628 8.81451C38.5391 7.45807 37.6994 6.26933 36.5625 5.41669V1.35419H33.8542V4.19794C32.9271 4.00969 31.9709 4.0178 31.0472 4.22173C30.1234 4.42566 29.2527 4.82089 28.491 5.38194C27.7294 5.94299 27.0938 6.65741 26.6252 7.47915C26.1565 8.30089 25.8653 9.21171 25.7702 10.1529C25.6752 11.0941 25.7784 12.0447 26.0732 12.9436C26.368 13.8425 26.8479 14.6696 27.482 15.3716C28.116 16.0736 28.8902 16.635 29.7545 17.0195C30.6187 17.4041 31.554 17.6032 32.5 17.6042ZM32.5 6.77085C33.3035 6.77085 34.0889 7.00912 34.757 7.45551C35.4251 7.9019 35.9458 8.53638 36.2533 9.2787C36.5607 10.021 36.6412 10.8379 36.4844 11.6259C36.3277 12.414 35.9408 13.1378 35.3726 13.706C34.8045 14.2741 34.0806 14.661 33.2925 14.8178C32.5045 14.9745 31.6877 14.8941 30.9453 14.5866C30.203 14.2791 29.5685 13.7584 29.1221 13.0904C28.6758 12.4223 28.4375 11.6368 28.4375 10.8334C28.4375 9.75591 28.8655 8.7226 29.6274 7.96073C30.3892 7.19887 31.4225 6.77085 32.5 6.77085Z" fill="black"/>
<path d="M28.4375 0H25.7292V4.0625H28.4375V0Z" fill="black"/>
<path d="M47.3958 29.3448V20.3125H18.9583V29.3448L14.8958 34.7615V60.9375C14.8958 62.0149 15.3239 63.0483 16.0857 63.8101C16.8476 64.572 17.8809 65 18.9583 65H47.3958C48.4733 65 49.5066 64.572 50.2685 63.8101C51.0303 63.0483 51.4583 62.0149 51.4583 60.9375V34.7615L47.3958 29.3448ZM21.6667 23.0208H44.6875V28.4375H21.6667V23.0208ZM48.75 60.9375C48.75 61.2966 48.6073 61.6411 48.3534 61.895C48.0994 62.149 47.755 62.2917 47.3958 62.2917H18.9583C18.5992 62.2917 18.2548 62.149 18.0008 61.895C17.7468 61.6411 17.6042 61.2966 17.6042 60.9375V35.6552L20.9896 31.1458H45.3646L48.75 35.6552V60.9375Z" fill="black"/>
</svg>
