<svg width="54" height="54" viewBox="0 0 54 54" fill="none" xmlns="http://www.w3.org/2000/svg">
<g clip-path="url(#clip0_443_790)">
<path d="M24.75 50.625C37.7977 50.625 48.375 40.0477 48.375 27C48.375 13.9523 37.7977 3.375 24.75 3.375C11.7023 3.375 1.125 13.9523 1.125 27C1.125 40.0477 11.7023 50.625 24.75 50.625Z" fill="#7C6F66"/>
<path d="M24.75 43.875C34.0698 43.875 41.625 36.3198 41.625 27C41.625 17.6802 34.0698 10.125 24.75 10.125C15.4302 10.125 7.875 17.6802 7.875 27C7.875 36.3198 15.4302 43.875 24.75 43.875Z" fill="white"/>
<path d="M24.75 37.125C30.3419 37.125 34.875 32.5919 34.875 27C34.875 21.4081 30.3419 16.875 24.75 16.875C19.1581 16.875 14.625 21.4081 14.625 27C14.625 32.5919 19.1581 37.125 24.75 37.125Z" fill="#7C6F66"/>
<path d="M24.75 31.5C27.2353 31.5 29.25 29.4853 29.25 27C29.25 24.5147 27.2353 22.5 24.75 22.5C22.2647 22.5 20.25 24.5147 20.25 27C20.25 29.4853 22.2647 31.5 24.75 31.5Z" fill="#FCD900"/>
<path d="M41.625 52.875C47.8382 52.875 52.875 47.8382 52.875 41.625C52.875 35.4118 47.8382 30.375 41.625 30.375C35.4118 30.375 30.375 35.4118 30.375 41.625C30.375 47.8382 35.4118 52.875 41.625 52.875Z" fill="#FCD900"/>
<path d="M38.25 46.5863L36.6638 45L40.5 41.1638V33.75H42.75V42.0863L38.25 46.5863Z" fill="white"/>
<path d="M37.125 14.625V7.875L42.75 2.25L43.875 7.875L37.125 14.625Z" fill="#FCD900"/>
<path d="M37.125 14.625H43.875L49.5 9L43.875 7.875L37.125 14.625Z" fill="#FCD900"/>
<path d="M49.0387 31.7138C50.2194 25.682 49.1039 19.4269 45.9113 14.175L51.75 8.31375L46.125 7.18875L47.7113 5.625L46.125 4.03875L44.5725 5.625L43.4475 0L37.575 5.83875C21.2288 -4.0725 0 7.66125 0 27C0.00206672 30.947 0.948088 34.8363 2.75912 38.3433C4.57015 41.8503 7.19367 44.8733 10.4108 47.16C13.6278 49.4468 17.3452 50.9309 21.2526 51.4887C25.16 52.0464 29.1441 51.6616 32.8725 50.3662C34.0211 51.5173 35.3853 52.4307 36.8871 53.0542C38.3889 53.6777 39.9989 53.9991 41.625 54C53.4375 54 58.5675 38.8575 49.0387 31.7138ZM47.25 9.68625L43.4137 13.5H39.8363L41.4338 11.9137L43.02 10.3387L44.2463 9.12375L47.25 9.68625ZM42.0638 4.5L42.6488 7.47L41.4338 8.73L39.8587 10.3162L38.25 11.9137V8.33625L42.0638 4.5ZM2.25 27C2.25207 23.0514 3.29323 19.1729 5.26886 15.7541C7.24449 12.3354 10.085 9.49668 13.5051 7.52329C16.9252 5.54991 20.8044 4.5113 24.753 4.51182C28.7015 4.51234 32.5804 5.55196 36 7.52625V14.1637L23.9513 26.2013C23.7394 26.4131 23.6204 26.7004 23.6204 27C23.6204 27.2996 23.7394 27.5869 23.9513 27.7987C24.1631 28.0106 24.4504 28.1296 24.75 28.1296C25.0496 28.1296 25.3369 28.0106 25.5487 27.7987L37.5863 15.75H44.2238C46.8091 20.1914 47.7827 25.389 46.98 30.465C44.5382 29.3039 41.7834 28.9745 39.1367 29.5271C36.49 30.0797 34.0971 31.4839 32.3239 33.525C30.5507 35.5661 29.4947 38.1318 29.3175 40.8298C29.1403 43.5277 29.8515 46.2095 31.3425 48.465C27.982 49.4948 24.4269 49.7231 20.9623 49.1314C17.4976 48.5397 14.2198 47.1446 11.3915 45.0578C8.56322 42.971 6.26315 40.2507 4.67566 37.1148C3.08817 33.979 2.25742 30.5148 2.25 27ZM41.625 51.75C39.9794 51.7508 38.3585 51.3505 36.9024 50.5838C35.4464 49.8171 34.1992 48.707 33.2688 47.3497C32.3384 45.9924 31.7528 44.4288 31.5627 42.7943C31.3727 41.1597 31.5839 39.5035 32.1781 37.9689C32.7723 36.4344 33.7316 35.0678 34.9729 33.9875C36.2142 32.9072 37.7001 32.1457 39.302 31.7689C40.9038 31.3922 42.5734 31.4116 44.1661 31.8254C45.7588 32.2392 47.2266 33.0349 48.4425 34.1437C49.9512 35.5196 51.0086 37.3194 51.4761 39.307C51.9435 41.2946 51.7991 43.377 51.0619 45.2811C50.3246 47.1851 49.0288 48.8218 47.3447 49.9762C45.6606 51.1307 43.6668 51.749 41.625 51.75Z" fill="black"/>
</g>
<defs>
<clipPath id="clip0_443_790">
<rect width="54" height="54" fill="white"/>
</clipPath>
</defs>
</svg>
