<svg width="59" height="59" viewBox="0 0 59 59" fill="none" xmlns="http://www.w3.org/2000/svg">
<path d="M29.5 0C45.7923 0 59 13.2077 59 29.5C59 45.7923 45.7923 59 29.5 59C13.2077 59 0 45.7923 0 29.5C0 13.2077 13.2077 0 29.5 0Z" fill="#FCD900"/>
<path d="M37.7346 47.6093L37.7374 47.6079L37.7309 47.5955C37.7024 47.5231 37.6641 47.4549 37.6194 47.3926L30.763 34.8971L29.5074 35.3295L28.2513 34.8971L21.3953 47.3922C21.3497 47.4549 21.3124 47.5226 21.2838 47.595L21.2769 47.6074L21.2796 47.6088C21.2414 47.7102 21.2179 47.8186 21.2179 47.9329C21.2179 48.444 21.6322 48.8589 22.1439 48.8589C22.5311 48.8589 22.862 48.6206 22.9998 48.2836L28.585 38.0476V47.0446C28.585 47.5438 28.998 47.9485 29.5069 47.9485C30.0153 47.9485 30.4288 47.5438 30.4288 47.0446V38.0822L30.4371 38.0978V38.0628L36.0144 48.2841C36.1532 48.621 36.4832 48.8594 36.8704 48.8594C37.3816 48.8594 37.7969 48.445 37.7969 47.9333C37.7969 47.819 37.7734 47.7107 37.7346 47.6093Z" fill="#334D5D"/>
<path d="M27.1953 34.5703H31.8047C32.8229 34.5703 33.6484 35.3959 33.6484 36.4141C33.6484 37.4323 32.8229 38.2578 31.8047 38.2578H27.1953C26.1771 38.2578 25.3516 37.4323 25.3516 36.4141C25.3516 35.3959 26.1771 34.5703 27.1953 34.5703Z" fill="#2F3A40"/>
<path d="M45.106 24.4297C44.6146 24.4297 44.1832 24.5389 43.9214 24.8072L43.9223 24.803L43.9089 24.8173L43.9025 24.8238L41.4844 27.3271V23.5078C41.4844 22.744 40.8649 22.125 40.1016 22.125H17.0547C16.2914 22.125 15.6719 22.744 15.6719 23.5078V35.4922C15.6719 36.256 16.2914 36.875 17.0547 36.875H40.1016C40.8649 36.875 41.4844 36.256 41.4844 35.4922V31.6733L43.9043 34.1794L43.9052 34.1799L43.9126 34.1882L43.9117 34.1859C44.1726 34.4597 44.61 34.5703 45.106 34.5703C45.9052 34.5703 46.0938 33.9222 46.0938 33.1216V25.8784C46.0938 25.0787 45.9057 24.4297 45.106 24.4297Z" fill="#334D5D"/>
<path d="M15.6719 32.2656H41.4844V32.7266H15.6719V32.2656Z" fill="#5F727F"/>
<path d="M34.3398 14.2891C31.7337 14.2891 29.5041 15.8927 28.5781 18.1665C27.6516 15.8927 25.4225 14.2891 22.8164 14.2891C19.3792 14.2891 16.5938 17.075 16.5938 20.5117C16.5938 23.9485 19.3792 26.7344 22.8164 26.7344C25.4225 26.7344 27.6516 25.1308 28.5781 22.857C29.5041 25.1308 31.7337 26.7344 34.3398 26.7344C37.7761 26.7344 40.5625 23.9485 40.5625 20.5117C40.5625 17.075 37.7761 14.2891 34.3398 14.2891Z" fill="#FFFCF6"/>
<path d="M22.8164 15.6719C20.1434 15.6719 17.9766 17.8387 17.9766 20.5117C17.9766 23.1847 20.1434 25.3516 22.8164 25.3516C25.4894 25.3516 27.6562 23.1847 27.6562 20.5117C27.6562 17.8387 25.4889 15.6719 22.8164 15.6719ZM34.3398 15.6719C31.6669 15.6719 29.5 17.8387 29.5 20.5117C29.5 23.1847 31.6669 25.3516 34.3398 25.3516C37.0128 25.3516 39.1797 23.1847 39.1797 20.5117C39.1797 17.8387 37.0128 15.6719 34.3398 15.6719Z" fill="#CCD0D2"/>
<path d="M22.8164 16.5938C22.4348 16.5938 22.125 16.903 22.125 17.2852C22.125 17.6673 22.4348 17.9766 22.8164 17.9766C23.1981 17.9766 23.5078 17.6673 23.5078 17.2852C23.5078 16.9035 23.1981 16.5938 22.8164 16.5938ZM26.043 19.8203C25.6613 19.8203 25.3516 20.1301 25.3516 20.5117C25.3516 20.8938 25.6613 21.2031 26.043 21.2031C26.4246 21.2031 26.7344 20.8938 26.7344 20.5117C26.7344 20.1301 26.4246 19.8203 26.043 19.8203ZM22.8164 23.0469C22.4348 23.0469 22.125 23.3566 22.125 23.7383C22.125 24.1204 22.4348 24.4297 22.8164 24.4297C23.1981 24.4297 23.5078 24.1199 23.5078 23.7383C23.5078 23.3566 23.1981 23.0469 22.8164 23.0469ZM20.2812 20.5117C20.2812 20.1301 19.9715 19.8203 19.5898 19.8203C19.2082 19.8203 18.8984 20.1301 18.8984 20.5117C18.8984 20.8938 19.2082 21.2031 19.5898 21.2031C19.9715 21.2031 20.2812 20.8938 20.2812 20.5117ZM20.5117 17.5156C20.1301 17.5156 19.8203 17.8254 19.8203 18.207C19.8203 18.5891 20.1301 18.8984 20.5117 18.8984C20.8934 18.8984 21.2031 18.5891 21.2031 18.207C21.2031 17.8254 20.8934 17.5156 20.5117 17.5156ZM25.1211 18.8984C25.5027 18.8984 25.8125 18.5891 25.8125 18.207C25.8125 17.8254 25.5027 17.5156 25.1211 17.5156C24.7394 17.5156 24.4297 17.8254 24.4297 18.207C24.4297 18.5891 24.739 18.8984 25.1211 18.8984ZM25.1211 22.125C24.7394 22.125 24.4297 22.4348 24.4297 22.8164C24.4297 23.1985 24.7394 23.5078 25.1211 23.5078C25.5027 23.5078 25.8125 23.1985 25.8125 22.8164C25.8125 22.4348 25.5027 22.125 25.1211 22.125ZM20.5117 22.125C20.1301 22.125 19.8203 22.4348 19.8203 22.8164C19.8203 23.1985 20.1301 23.5078 20.5117 23.5078C20.8934 23.5078 21.2031 23.1985 21.2031 22.8164C21.2031 22.4348 20.8934 22.125 20.5117 22.125ZM34.3398 16.5938C33.9582 16.5938 33.6484 16.903 33.6484 17.2852C33.6484 17.6673 33.9582 17.9766 34.3398 17.9766C34.7215 17.9766 35.0312 17.6673 35.0312 17.2852C35.0312 16.9035 34.7215 16.5938 34.3398 16.5938ZM37.5664 19.8203C37.1847 19.8203 36.875 20.1301 36.875 20.5117C36.875 20.8938 37.1847 21.2031 37.5664 21.2031C37.9481 21.2031 38.2578 20.8938 38.2578 20.5117C38.2578 20.1301 37.9481 19.8203 37.5664 19.8203ZM34.3398 23.0469C33.9582 23.0469 33.6484 23.3566 33.6484 23.7383C33.6484 24.1204 33.9582 24.4297 34.3398 24.4297C34.7215 24.4297 35.0312 24.1199 35.0312 23.7383C35.0312 23.3566 34.7215 23.0469 34.3398 23.0469ZM31.8047 20.5117C31.8047 20.1301 31.4949 19.8203 31.1133 19.8203C30.7316 19.8203 30.4219 20.1301 30.4219 20.5117C30.4219 20.8938 30.7316 21.2031 31.1133 21.2031C31.4949 21.2031 31.8047 20.8938 31.8047 20.5117ZM32.0352 17.5156C31.6535 17.5156 31.3438 17.8254 31.3438 18.207C31.3438 18.5891 31.6535 18.8984 32.0352 18.8984C32.4168 18.8984 32.7266 18.5891 32.7266 18.207C32.7266 17.8254 32.4168 17.5156 32.0352 17.5156ZM36.6445 18.8984C37.0262 18.8984 37.3359 18.5891 37.3359 18.207C37.3359 17.8254 37.0262 17.5156 36.6445 17.5156C36.2629 17.5156 35.9531 17.8254 35.9531 18.207C35.9531 18.5891 36.2629 18.8984 36.6445 18.8984ZM36.6445 22.125C36.2629 22.125 35.9531 22.4348 35.9531 22.8164C35.9531 23.1985 36.2629 23.5078 36.6445 23.5078C37.0262 23.5078 37.3359 23.1985 37.3359 22.8164C37.3359 22.4348 37.0262 22.125 36.6445 22.125ZM32.0352 22.125C31.6535 22.125 31.3438 22.4348 31.3438 22.8164C31.3438 23.1985 31.6535 23.5078 32.0352 23.5078C32.4168 23.5078 32.7266 23.1985 32.7266 22.8164C32.7266 22.4348 32.4168 22.125 32.0352 22.125Z" fill="#868686"/>
<path d="M15.6719 35.4922C15.6719 36.256 16.2914 36.875 17.0547 36.875H40.1016C40.8649 36.875 41.4844 36.256 41.4844 35.4922V32.7266H15.6719V35.4922Z" fill="#475A66"/>
<path d="M18.207 34.1094C18.5887 34.1094 18.8984 34.4191 18.8984 34.8008C18.8984 35.1829 18.5887 35.4922 18.207 35.4922C17.8254 35.4922 17.5156 35.1829 17.5156 34.8008C17.5156 34.4191 17.8249 34.1094 18.207 34.1094Z" fill="#45B39C"/>
<path d="M42.4062 26.373L41.4844 27.3272V31.6734L42.4062 32.6275V26.373Z" fill="#2F3A40"/>
</svg>
