<svg width="30" height="30" viewBox="0 0 30 30" fill="none" xmlns="http://www.w3.org/2000/svg">
<path d="M3.56662 7.13687C2.65898 8.45271 1.98654 9.91606 1.57922 11.4618H7.89177L3.56662 7.13687ZM11.1135 1.67822C9.53435 2.13769 8.04987 2.87518 6.72979 3.85603L11.1135 8.23969V1.67822ZM7.05584 26.3756C8.29285 27.2418 9.6636 27.8992 11.1135 28.3216V22.3186L7.05584 26.3756ZM1.73852 19.0976C2.19304 20.5666 2.88946 21.9496 3.7991 23.1894L7.8909 19.0976H1.73852Z" fill="#29337A"/>
<path d="M3.79557 6.81475C3.718 6.9208 3.64153 7.02839 3.56659 7.13707L7.89175 11.462H1.5792C1.47702 11.8543 1.39206 12.2508 1.32458 12.6505H9.63176L3.79557 6.81475ZM6.73393 26.1466C6.83955 26.2253 6.94801 26.3002 7.05582 26.3756L11.1134 22.3184V28.3213C11.5032 28.4353 11.8992 28.5337 12.3019 28.6128V20.5788L6.73393 26.1466ZM1.4302 17.9091C1.51518 18.3096 1.61797 18.7062 1.73828 19.0976H7.89065L3.79886 23.1894C4.24363 23.7969 4.73679 24.3676 5.27352 24.8956L12.2601 17.9091H1.4302ZM11.1134 1.67821V8.23967L6.72977 3.85623C6.12634 4.30595 5.56027 4.80373 5.03709 5.34469L12.3017 12.6093V1.38678C11.9015 1.46649 11.5051 1.56373 11.1134 1.67821Z" fill="white"/>
<path d="M11.1134 19.0558L11.0718 19.0976H11.1134V19.0558ZM12.2603 17.9091H12.3019V17.8673L12.2603 17.9091ZM17.6008 12.6503H17.5607V12.6906L17.6008 12.6503ZM11.1544 11.462L11.1134 11.4208V11.462H11.1544ZM12.3019 12.6093V12.6503H12.3429L12.3019 12.6093Z" fill="#D32030"/>
<path d="M18.749 25.2496V28.3604C20.2174 27.9496 21.6076 27.2982 22.863 26.4328L19.4923 23.0621C19.223 24.0085 19.1244 24.4978 18.749 25.2496ZM19.51 7.4785L23.1897 3.79887C21.851 2.81841 20.3468 2.08695 18.749 1.63947V4.83507C19.1818 5.70168 19.2182 6.36013 19.51 7.4785ZM26.1438 23.2703C27.0815 22.0097 27.7978 20.5987 28.2618 19.0976H21.9711L26.1438 23.2703ZM28.4206 11.4621C28.0046 9.8842 27.3123 8.39255 26.3758 7.05626L21.9696 11.4621H28.4206Z" fill="#252F6C"/>
<path d="M20.3201 18.1442L21.2737 19.0978L25.8384 23.6625C25.942 23.5327 26.045 23.4035 26.144 23.2705L21.9714 19.0978H28.262C28.3821 18.7064 28.4847 18.3098 28.5697 17.9093H20.4093C20.3959 18.0778 20.3361 17.9768 20.3201 18.1442ZM19.3659 8.17438L23.503 4.03679C23.3997 3.95604 23.2952 3.87671 23.1897 3.79883L19.51 7.47846C19.5482 7.62396 19.3304 8.02538 19.3659 8.17438ZM18.749 4.57932V1.63921C18.3571 1.52945 17.9606 1.43704 17.5605 1.36224V2.79637C18.0027 3.27579 18.3991 3.87793 18.749 4.57932ZM20.2265 12.6503H28.6755C28.6082 12.2506 28.5232 11.854 28.4209 11.4618H21.9698L26.3761 7.05601C25.9437 6.43802 25.462 5.85611 24.9356 5.316L19.9726 10.2786C20.1063 11.1787 20.1661 11.7015 20.2265 12.6503ZM19.2918 22.8612L22.8632 26.433C23.456 26.0241 24.0161 25.5698 24.5386 25.0742L19.8409 20.3764C19.691 21.2452 19.5131 22.0844 19.2918 22.8612ZM17.5608 27.0388V28.6373C17.9608 28.5627 18.3574 28.4703 18.7493 28.3603V25.2495C18.3991 25.9511 18.0027 26.5601 17.5608 27.0388Z" fill="#E7E7E7"/>
<path d="M19.9725 10.2786L24.9351 5.31601C24.4877 4.85704 24.0091 4.42961 23.5027 4.0368L19.6033 7.93687C19.7766 8.66127 19.8553 9.49041 19.9725 10.2786Z" fill="#D71F28"/>
<path d="M14.9996 28.8775C15.8589 28.8767 16.7162 28.7963 17.5607 28.6373V27.0389C16.8317 27.829 15.9789 28.8775 14.9996 28.8775Z" fill="#D32030"/>
<path d="M28.6752 12.6503H20.336C20.4464 14.3907 20.4331 16.1805 20.2961 17.9091H28.5695C28.774 16.953 28.8771 15.978 28.8772 15.0003C28.8772 14.1988 28.8058 13.4148 28.6752 12.6503ZM20.32 18.1442C20.2429 18.9641 19.9742 19.6031 19.8406 20.3766L24.5382 25.0742C25.0033 24.6339 25.4376 24.1622 25.838 23.6624L21.2736 19.0976L20.32 18.1442Z" fill="#D71F28"/>
<path d="M17.5607 2.89956V1.36246C16.7162 1.20382 15.8589 1.12357 14.9996 1.12274C15.9789 1.12274 16.8317 2.10965 17.5607 2.89956Z" fill="#D32030"/>
<path d="M18.749 25.8497C19.1244 25.0977 19.4463 24.232 19.7158 23.2858L18.749 22.3191V25.8497ZM19.8361 7.15244C19.5438 6.03407 19.1818 5.01737 18.749 4.15076V8.23905L19.8361 7.15244Z" fill="#29337A"/>
<path d="M20.5894 18.4133C20.6052 18.2459 20.6194 18.0778 20.633 17.9091H20.0852L20.5894 18.4133ZM18.749 8.23902V4.15051C18.3989 3.44912 18.0027 2.84654 17.5605 2.36755V9.97925L19.9474 7.5924C19.9115 7.44529 19.8744 7.29847 19.8361 7.15198L18.749 8.23902ZM17.6009 12.6503H20.6729C20.6126 11.7015 20.5167 10.7681 20.3832 9.86816L17.6009 12.6503ZM17.5608 27.6324C18.0029 27.153 18.3991 26.5509 18.7493 25.8495V22.3188L19.716 23.2856C19.9377 22.5084 20.1238 21.6781 20.2741 20.8093L17.5608 18.0962V27.6324Z" fill="white"/>
<path d="M17.5607 27.6324V18.0962L20.2738 20.8095C20.4097 20.0151 20.5149 19.2158 20.5892 18.4133L20.085 17.9091H20.6328C20.7697 16.1805 20.7831 14.3907 20.6726 12.6503H17.6006L20.3827 9.86815C20.2706 9.10369 20.1252 8.34446 19.9471 7.59262L17.5607 9.97946V2.36777C16.8317 1.57763 15.9789 1.12274 14.9997 1.12274C14.094 1.12312 13.1905 1.21154 12.3019 1.38678V12.6093L5.03709 5.34469C4.59005 5.80568 4.17523 6.29686 3.79557 6.81475L8.44283 11.462L9.63176 12.6505H1.32458C1.19117 13.4267 1.12359 14.2127 1.12256 15.0003C1.12256 15.9984 1.23036 16.9706 1.4302 17.9091H12.2603L5.27374 24.8956C5.7312 25.3456 6.21909 25.7636 6.73393 26.1466L12.3017 20.5788V28.613C13.1903 28.7883 14.0938 28.8769 14.9995 28.8774C15.9789 28.8774 16.8317 28.4226 17.5607 27.6324Z" fill="#E51D35"/>
</svg>
