<svg width="57" height="57" viewBox="0 0 57 57" fill="none" xmlns="http://www.w3.org/2000/svg">
<g clip-path="url(#clip0_439_681)">
<path d="M48.6875 5.9375H1.1875V13.0625H48.6875V5.9375Z" fill="#FCD900"/>
<path d="M48.6875 13.0625H1.1875V53.4375H48.6875V13.0625Z" fill="white"/>
<path d="M16.625 16.625H11.875V21.375H16.625V16.625Z" fill="#7C6F66"/>
<path d="M23.75 16.625H19V21.375H23.75V16.625Z" fill="#7C6F66"/>
<path d="M30.875 16.625H26.125V21.375H30.875V16.625Z" fill="#7C6F66"/>
<path d="M45.125 16.625H40.375V21.375H45.125V16.625Z" fill="#7C6F66"/>
<path d="M9.5 23.75H4.75V28.5H9.5V23.75Z" fill="#7C6F66"/>
<path d="M16.625 23.75H11.875V28.5H16.625V23.75Z" fill="#7C6F66"/>
<path d="M23.75 23.75H19V28.5H23.75V23.75Z" fill="#7C6F66"/>
<path d="M30.875 23.75H26.125V28.5H30.875V23.75Z" fill="#7C6F66"/>
<path d="M38 23.75H33.25V28.5H38V23.75Z" fill="#7C6F66"/>
<path d="M45.125 23.75H40.375V28.5H45.125V23.75Z" fill="#7C6F66"/>
<path d="M9.5 30.875H4.75V35.625H9.5V30.875Z" fill="#7C6F66"/>
<path d="M16.625 30.875H11.875V35.625H16.625V30.875Z" fill="#7C6F66"/>
<path d="M30.875 30.875H26.125V35.625H30.875V30.875Z" fill="#7C6F66"/>
<path d="M38 30.875H33.25V35.625H38V30.875Z" fill="#7C6F66"/>
<path d="M45.125 30.875H40.375V35.625H45.125V30.875Z" fill="#7C6F66"/>
<path d="M9.5 38H4.75V42.75H9.5V38Z" fill="#7C6F66"/>
<path d="M16.625 38H11.875V42.75H16.625V38Z" fill="#7C6F66"/>
<path d="M23.75 38H19V42.75H23.75V38Z" fill="#7C6F66"/>
<path d="M30.875 38H26.125V42.75H30.875V38Z" fill="#7C6F66"/>
<path d="M38 38H33.25V42.75H38V38Z" fill="#7C6F66"/>
<path d="M45.125 38H40.375V42.75H45.125V38Z" fill="#7C6F66"/>
<path d="M9.5 45.125H4.75V49.875H9.5V45.125Z" fill="#7C6F66"/>
<path d="M16.625 45.125H11.875V49.875H16.625V45.125Z" fill="#7C6F66"/>
<path d="M23.75 45.125H19V49.875H23.75V45.125Z" fill="#7C6F66"/>
<path d="M30.875 45.125H26.125V49.875H30.875V45.125Z" fill="#7C6F66"/>
<path d="M38 45.125H33.25V49.875H38V45.125Z" fill="#7C6F66"/>
<path d="M21.375 35.625C22.6867 35.625 23.75 34.5617 23.75 33.25C23.75 31.9383 22.6867 30.875 21.375 30.875C20.0633 30.875 19 31.9383 19 33.25C19 34.5617 20.0633 35.625 21.375 35.625Z" fill="#FCD900"/>
<path d="M35.625 21.375C36.9367 21.375 38 20.3117 38 19C38 17.6883 36.9367 16.625 35.625 16.625C34.3133 16.625 33.25 17.6883 33.25 19C33.25 20.3117 34.3133 21.375 35.625 21.375Z" fill="#FCD900"/>
<path d="M42.75 55.8125C49.9642 55.8125 55.8125 49.9642 55.8125 42.75C55.8125 35.5358 49.9642 29.6875 42.75 29.6875C35.5358 29.6875 29.6875 35.5358 29.6875 42.75C29.6875 49.9642 35.5358 55.8125 42.75 55.8125Z" fill="#FCD900"/>
<path d="M49.875 30.4119V4.75H45.125C45.125 3.49022 44.6245 2.28204 43.7338 1.39124C42.843 0.500445 41.6348 0 40.375 0C39.1152 0 37.907 0.500445 37.0162 1.39124C36.1254 2.28204 35.625 3.49022 35.625 4.75H30.875C30.875 3.49022 30.3746 2.28204 29.4838 1.39124C28.593 0.500445 27.3848 0 26.125 0C24.8652 0 23.657 0.500445 22.7662 1.39124C21.8754 2.28204 21.375 3.49022 21.375 4.75H16.625C16.625 3.49022 16.1246 2.28204 15.2338 1.39124C14.343 0.500445 13.1348 0 11.875 0C10.6152 0 9.40704 0.500445 8.51624 1.39124C7.62544 2.28204 7.125 3.49022 7.125 4.75H0V54.625H34.8887C36.4789 55.7026 38.2706 56.4475 40.156 56.8151C42.0414 57.1826 43.9817 57.1651 45.8602 56.7638C47.7387 56.3624 49.5167 55.5853 51.0872 54.4793C52.6578 53.3733 53.9885 51.9612 54.9995 50.3279C56.0104 48.6945 56.6807 46.8736 56.97 44.9746C57.2593 43.0756 57.1617 41.1377 56.683 39.2774C56.2044 37.4171 55.3545 35.6728 54.1846 34.1492C53.0146 32.6257 51.5487 31.3545 49.875 30.4119ZM40.375 2.375C41.0049 2.375 41.609 2.62522 42.0544 3.07062C42.4998 3.51602 42.75 4.12011 42.75 4.75H38C38 4.12011 38.2502 3.51602 38.6956 3.07062C39.141 2.62522 39.7451 2.375 40.375 2.375ZM26.125 2.375C26.7549 2.375 27.359 2.62522 27.8044 3.07062C28.2498 3.51602 28.5 4.12011 28.5 4.75H23.75C23.75 4.12011 24.0002 3.51602 24.4456 3.07062C24.891 2.62522 25.4951 2.375 26.125 2.375ZM11.875 2.375C12.5049 2.375 13.109 2.62522 13.5544 3.07062C13.9998 3.51602 14.25 4.12011 14.25 4.75H9.5C9.5 4.12011 9.75022 3.51602 10.1956 3.07062C10.641 2.62522 11.2451 2.375 11.875 2.375ZM2.375 7.125H7.125V9.5H9.5V7.125H21.375V9.5H23.75V7.125H35.625V9.5H38V7.125H47.5V11.875H2.375V7.125ZM2.375 52.25V14.25H47.5V29.3194C45.9759 28.7739 44.3688 28.4967 42.75 28.5C40.0006 28.5033 37.3108 29.3018 35.0051 30.7994C32.6993 32.297 30.876 34.4297 29.7551 36.9402C28.6341 39.4507 28.2634 42.2319 28.6875 44.9484C29.1117 47.6649 30.3127 50.2007 32.1456 52.25H2.375ZM49.875 52.25C47.8195 53.7916 45.3194 54.625 42.75 54.625C40.1806 54.625 37.6805 53.7916 35.625 52.25C26.5169 45.4219 31.3619 30.875 42.75 30.875C54.1381 30.875 59.0662 45.3506 49.875 52.25Z" fill="black"/>
<path d="M39.1875 47.9869L37.5131 46.3125L41.5625 42.2631V33.25H43.9375V43.2369L39.1875 47.9869Z" fill="white"/>
</g>
<defs>
<clipPath id="clip0_439_681">
<rect width="57" height="57" fill="white"/>
</clipPath>
</defs>
</svg>
