<svg width="64" height="64" viewBox="0 0 64 64" fill="none" xmlns="http://www.w3.org/2000/svg">
<g clip-path="url(#clip0_365_392)">
<path d="M10 40C15.5228 40 20 35.5228 20 30C20 24.4772 15.5228 20 10 20C4.47715 20 0 24.4772 0 30C0 35.5228 4.47715 40 10 40Z" fill="#CFD3D6"/>
<path d="M54 40C59.5228 40 64 35.5228 64 30C64 24.4772 59.5228 20 54 20C48.4772 20 44 24.4772 44 30C44 35.5228 48.4772 40 54 40Z" fill="#CFD3D6"/>
<path d="M32 30C39.732 30 46 23.732 46 16C46 8.26801 39.732 2 32 2C24.268 2 18 8.26801 18 16C18 23.732 24.268 30 32 30Z" fill="#CFD3D6"/>
<path d="M48 26C52.4183 26 56 22.4183 56 18C56 13.5817 52.4183 10 48 10C43.5817 10 40 13.5817 40 18C40 22.4183 43.5817 26 48 26Z" fill="#CFD3D6"/>
<path d="M16 26C20.4183 26 24 22.4183 24 18C24 13.5817 20.4183 10 16 10C11.5817 10 8 13.5817 8 18C8 22.4183 11.5817 26 16 26Z" fill="#CFD3D6"/>
<path d="M54 22H10V40H54V22Z" fill="#CFD3D6"/>
<path d="M10 38C15.5228 38 20 33.5228 20 28C20 22.4772 15.5228 18 10 18C4.47715 18 0 22.4772 0 28C0 33.5228 4.47715 38 10 38Z" fill="#DFE3E6"/>
<path d="M54 38C59.5228 38 64 33.5228 64 28C64 22.4772 59.5228 18 54 18C48.4772 18 44 22.4772 44 28C44 33.5228 48.4772 38 54 38Z" fill="#DFE3E6"/>
<path d="M32 28C39.732 28 46 21.732 46 14C46 6.26801 39.732 0 32 0C24.268 0 18 6.26801 18 14C18 21.732 24.268 28 32 28Z" fill="#DFE3E6"/>
<path d="M48 24C52.4183 24 56 20.4183 56 16C56 11.5817 52.4183 8 48 8C43.5817 8 40 11.5817 40 16C40 20.4183 43.5817 24 48 24Z" fill="#DFE3E6"/>
<path d="M16 24C20.4183 24 24 20.4183 24 16C24 11.5817 20.4183 8 16 8C11.5817 8 8 11.5817 8 16C8 20.4183 11.5817 24 16 24Z" fill="#DFE3E6"/>
<path d="M54 20H10V38H54V20Z" fill="#DFE3E6"/>
<path d="M58 10C58 6.687 55.313 4 52 4M64 4C60.687 4 58 6.687 58 10L64 4Z" stroke="#5E5C5C" stroke-width="2" stroke-miterlimit="10"/>
<path d="M18 42V44" stroke="#5E5C5C" stroke-width="2" stroke-miterlimit="10"/>
<path d="M18 46V48" stroke="#5E5C5C" stroke-width="2" stroke-miterlimit="10"/>
<path d="M18 50V52" stroke="#5E5C5C" stroke-width="2" stroke-miterlimit="10"/>
<path d="M46 42V44" stroke="#5E5C5C" stroke-width="2" stroke-miterlimit="10"/>
<path d="M46 46V48" stroke="#5E5C5C" stroke-width="2" stroke-miterlimit="10"/>
<path d="M46 50V52" stroke="#5E5C5C" stroke-width="2" stroke-miterlimit="10"/>
<path d="M27 19H25V63H27" stroke="#5E5C5C" stroke-width="2" stroke-miterlimit="10"/>
<path d="M37 63H39V19H37" stroke="#5E5C5C" stroke-width="2" stroke-miterlimit="10"/>
<path d="M25 23H39" stroke="#5E5C5C" stroke-width="2" stroke-miterlimit="10"/>
<path d="M25 27H39" stroke="#5E5C5C" stroke-width="2" stroke-miterlimit="10"/>
<path d="M25 31H39" stroke="#5E5C5C" stroke-width="2" stroke-miterlimit="10"/>
<path d="M25 35H39" stroke="#5E5C5C" stroke-width="2" stroke-miterlimit="10"/>
<path d="M25 39H39" stroke="#5E5C5C" stroke-width="2" stroke-miterlimit="10"/>
<path d="M25 43H39" stroke="#5E5C5C" stroke-width="2" stroke-miterlimit="10"/>
<path d="M25 47H39" stroke="#5E5C5C" stroke-width="2" stroke-miterlimit="10"/>
<path d="M25 51H39" stroke="#5E5C5C" stroke-width="2" stroke-miterlimit="10"/>
<path d="M25 55H39" stroke="#5E5C5C" stroke-width="2" stroke-miterlimit="10"/>
<path d="M25 59H39" stroke="#5E5C5C" stroke-width="2" stroke-miterlimit="10"/>
</g>
<defs>
<clipPath id="clip0_365_392">
<rect width="64" height="64" fill="white"/>
</clipPath>
</defs>
</svg>
