<svg width="57" height="57" viewBox="0 0 57 57" fill="none" xmlns="http://www.w3.org/2000/svg">
<g clip-path="url(#clip0_440_754)">
<path d="M55.8125 40.375H1.1875V54.625H55.8125V40.375Z" fill="#7C6F66"/>
<path d="M55.8125 40.375H1.1875L4.75 19H52.25L55.8125 40.375Z" fill="#FCD900"/>
<path d="M41.5625 11.875H36.8125V19H41.5625V11.875Z" fill="#7C6F66"/>
<path d="M49.875 2.375H28.5V11.875H49.875V2.375Z" fill="white"/>
<path d="M23.75 9.5V26.125H9.5V9.5L13.0625 10.6875L16.625 9.5L20.1875 10.6875L23.75 9.5Z" fill="white"/>
<path d="M34.4375 23.75H29.6875V26.125H34.4375V23.75Z" fill="white"/>
<path d="M41.5625 23.75H36.8125V26.125H41.5625V23.75Z" fill="white"/>
<path d="M48.6875 23.75H43.9375V26.125H48.6875V23.75Z" fill="white"/>
<path d="M34.4375 28.5H29.6875V30.875H34.4375V28.5Z" fill="white"/>
<path d="M41.5625 28.5H36.8125V30.875H41.5625V28.5Z" fill="white"/>
<path d="M48.6875 28.5H43.9375V30.875H48.6875V28.5Z" fill="white"/>
<path d="M34.4375 33.25H29.6875V35.625H34.4375V33.25Z" fill="white"/>
<path d="M41.5625 33.25H36.8125V35.625H41.5625V33.25Z" fill="white"/>
<path d="M48.6875 33.25H43.9375V35.625H48.6875V33.25Z" fill="white"/>
<path d="M28.5 49.875C29.8117 49.875 30.875 48.8117 30.875 47.5C30.875 46.1883 29.8117 45.125 28.5 45.125C27.1883 45.125 26.125 46.1883 26.125 47.5C26.125 48.8117 27.1883 49.875 28.5 49.875Z" fill="white"/>
<path d="M9.5 48.6875H21.375C21.6899 48.6875 21.992 48.5624 22.2147 48.3397C22.4374 48.117 22.5625 47.8149 22.5625 47.5C22.5625 47.1851 22.4374 46.883 22.2147 46.6603C21.992 46.4376 21.6899 46.3125 21.375 46.3125H9.5C9.18506 46.3125 8.88301 46.4376 8.66031 46.6603C8.43761 46.883 8.3125 47.1851 8.3125 47.5C8.3125 47.8149 8.43761 48.117 8.66031 48.3397C8.88301 48.5624 9.18506 48.6875 9.5 48.6875ZM35.625 48.6875H47.5C47.8149 48.6875 48.117 48.5624 48.3397 48.3397C48.5624 48.117 48.6875 47.8149 48.6875 47.5C48.6875 47.1851 48.5624 46.883 48.3397 46.6603C48.117 46.4376 47.8149 46.3125 47.5 46.3125H35.625C35.3101 46.3125 35.008 46.4376 34.7853 46.6603C34.5626 46.883 34.4375 47.1851 34.4375 47.5C34.4375 47.8149 34.5626 48.117 34.7853 48.3397C35.008 48.5624 35.3101 48.6875 35.625 48.6875Z" fill="white"/>
<path d="M53.2594 17.8125H42.75V13.0625H51.0625V1.1875H27.3125V13.0625H35.625V17.8125H24.9375V7.84938L20.1875 9.5L16.625 8.3125L13.0625 9.5L8.31249 7.84938V17.8125H3.74061C-0.914388 45.7544 -1.27107e-05 36.2188 -1.27107e-05 55.8125H57C57 36.2306 57.9737 46.1344 53.2594 17.8125ZM29.6875 10.6875V3.5625H48.6875V10.6875H29.6875ZM38 13.0625H40.375V17.8125H38V13.0625ZM10.6875 11.1506L13.0625 11.9344L16.625 10.7469L20.1875 11.9344L22.5625 11.1506V24.9375H10.6875V11.1506ZM5.75936 20.1875H8.31249V24.9375H7.12499V27.3125H26.125V24.9375H24.9375V20.1875H51.2406L54.4112 39.1875H2.58874L5.75936 20.1875ZM54.625 53.4375H2.37499V41.5625H54.625V53.4375Z" fill="#231F20"/>
</g>
<defs>
<clipPath id="clip0_440_754">
<rect width="57" height="57" fill="white"/>
</clipPath>
</defs>
</svg>
