<svg width="56" height="56" viewBox="0 0 56 56" fill="none" xmlns="http://www.w3.org/2000/svg">
<g clip-path="url(#clip0_440_734)">
<path d="M25.6667 40.8333C36.6203 40.8333 45.5 38.744 45.5 36.1667C45.5 33.5893 36.6203 31.5 25.6667 31.5C14.713 31.5 5.83333 33.5893 5.83333 36.1667C5.83333 38.744 14.713 40.8333 25.6667 40.8333Z" fill="#FCD900"/>
<path d="M45.5 36.1666V45.5C45.5 48.0783 36.6217 50.1666 25.6667 50.1666C14.7117 50.1666 5.83333 48.0783 5.83333 45.5V36.1666C5.83333 38.745 14.7117 40.8333 25.6667 40.8333C36.6217 40.8333 45.5 38.745 45.5 36.1666Z" fill="#7C6F66"/>
<path d="M25.6667 25.6667C36.6203 25.6667 45.5 23.5774 45.5 21C45.5 18.4227 36.6203 16.3334 25.6667 16.3334C14.713 16.3334 5.83333 18.4227 5.83333 21C5.83333 23.5774 14.713 25.6667 25.6667 25.6667Z" fill="#FCD900"/>
<path d="M45.5 21V30.3333C45.5 32.9117 36.6217 35 25.6667 35C14.7117 35 5.83333 32.9117 5.83333 30.3333V21C5.83333 23.5783 14.7117 25.6667 25.6667 25.6667C36.6217 25.6667 45.5 23.5783 45.5 21Z" fill="#7C6F66"/>
<path d="M25.6667 10.5C36.6203 10.5 45.5 8.41062 45.5 5.83329C45.5 3.25596 36.6203 1.16663 25.6667 1.16663C14.713 1.16663 5.83333 3.25596 5.83333 5.83329C5.83333 8.41062 14.713 10.5 25.6667 10.5Z" fill="#FCD900"/>
<path d="M45.5 5.83337V15.1667C45.5 17.745 36.6217 19.8334 25.6667 19.8334C14.7117 19.8334 5.83333 17.745 5.83333 15.1667V5.83337C5.83333 8.41171 14.7117 10.5 25.6667 10.5C36.6217 10.5 45.5 8.41171 45.5 5.83337Z" fill="#7C6F66"/>
<path d="M54.8333 46.6667C54.8333 48.8326 53.9729 50.9098 52.4414 52.4414C50.9098 53.9729 48.8326 54.8333 46.6667 54.8333H29.1667C27.3101 54.8333 25.5297 54.0958 24.2169 52.7831C22.9042 51.4703 22.1667 49.6898 22.1667 47.8333C22.1667 45.9768 22.9042 44.1963 24.2169 42.8836C25.5297 41.5708 27.3101 40.8333 29.1667 40.8333C30.9633 40.8333 30.3333 41.4633 30.3333 39.6667C30.3491 37.6129 31.1382 35.6406 32.5432 34.1426C33.9482 32.6446 35.8661 31.731 37.9146 31.5839C39.9631 31.4367 41.9918 32.0668 43.5965 33.3485C45.2013 34.6303 46.2641 36.4696 46.5733 38.5C47.6536 38.4876 48.7256 38.6898 49.7273 39.0946C50.7289 39.4995 51.6402 40.0991 52.4085 40.8587C53.1767 41.6183 53.7866 42.5227 54.2029 43.5197C54.6191 44.5167 54.8334 45.5863 54.8333 46.6667Z" fill="white"/>
<path d="M36.1667 54.8334V49H31.5L38.5 40.8334L45.5 49H40.8333V54.8334" fill="#FCD900"/>
<path d="M47.5417 37.3333C47.112 35.6295 46.2055 34.0835 44.9283 32.8767C45.4102 32.6353 45.8227 32.2751 46.1268 31.8301C46.431 31.3851 46.6168 30.87 46.6667 30.3333C46.6667 19.2267 46.6667 21 46.6667 20.7667C46.5355 20.1589 46.2529 19.5942 45.8449 19.1251C45.437 18.6559 44.917 18.2976 44.3333 18.0833C45.7567 17.3133 46.6667 16.3567 46.6667 15.1667C46.6667 4.06 46.6667 5.83333 46.6667 5.6C45.9317 -1.86667 5.43667 -1.86667 4.66667 5.6C4.66667 5.83333 4.66667 4.06 4.66667 15.1667C4.66667 16.3333 5.54167 17.3133 7 18.0833C6.41637 18.2976 5.89639 18.6559 5.48843 19.1251C5.08047 19.5942 4.79779 20.1589 4.66667 20.7667C4.66667 21 4.66667 19.2267 4.66667 30.3333C4.66667 31.5 5.54167 32.48 7 33.25C6.41637 33.4642 5.89639 33.8226 5.48843 34.2917C5.08047 34.7609 4.79779 35.3256 4.66667 35.9333C4.66667 36.1667 4.66667 34.3933 4.66667 45.5C4.66667 49.3967 14.1167 50.8783 21.7583 51.24C22.4093 52.6583 23.4531 53.8604 24.766 54.704C26.0789 55.5476 27.6061 55.9973 29.1667 56H46.6667C49.142 56 51.516 55.0167 53.2663 53.2663C55.0167 51.516 56 49.142 56 46.6667C56.0292 44.3304 55.1734 42.0696 53.6044 40.3383C52.0355 38.607 49.8695 37.5335 47.5417 37.3333ZM25.6667 2.33333C37.3333 2.33333 44.0883 4.66667 44.3333 5.83333C44.1117 7 37.3333 9.33333 25.6667 9.33333C14 9.33333 7.22167 7 7 5.83333C7.22167 4.66667 14 2.33333 25.6667 2.33333ZM7 15.1667C7 8.23667 7 8.75 7.07 8.80833C14.6767 12.6117 36.6567 12.6117 44.2633 8.80833C44.3333 8.75 44.3333 8.06167 44.3333 15.1667C44.24 15.6333 43.1667 16.2633 41.1833 16.8583C33.915 19.1333 18.4917 19.4017 10.15 16.8583C8.16667 16.2633 7.09333 15.6333 7 15.1667ZM41.1833 19.3083C43.1667 19.9033 44.24 20.5333 44.3333 21C44.1117 22.1667 37.3333 24.5 25.6667 24.5C14 24.5 7.22167 22.1667 7 21C7.09333 20.5333 8.16667 19.9033 10.15 19.3083C18.1533 21.5483 33.1567 21.56 41.1833 19.3083ZM7 30.3333C7 23.4033 7 23.9167 7.07 23.975C14.6767 27.7783 36.6567 27.7783 44.2633 23.975C44.38 23.9167 44.3333 23.2283 44.3333 30.3333C44.3333 30.6483 43.7733 31.0333 42.8517 31.43C40.9756 30.4413 38.8188 30.121 36.7363 30.5218C34.6539 30.9226 32.7701 32.0206 31.395 33.635C18.4333 34.58 7.33833 32.025 7 30.3333ZM29.89 36.0617C29.4279 37.1715 29.1824 38.3595 29.1667 39.5617C28.0622 39.6317 26.8956 39.6667 25.6667 39.6667C14 39.6667 7.22167 37.3333 7 36.1667C7.09333 35.7 8.16667 35.07 10.15 34.475C15.82 36.0617 24.01 36.33 29.89 36.0617ZM7 45.5C7 38.57 7 39.0833 7.07 39.1417C11.34 41.2767 18.7367 41.8367 23.485 41.965C22.5707 42.847 21.8767 43.9317 21.4592 45.1315C21.0417 46.3314 20.9123 47.6126 21.0817 48.8717C12.2383 48.3817 7.18667 46.5267 7 45.5ZM37.3333 48.0783C37.3333 47.7283 37.8233 47.8333 34.0317 47.8333L38.5 42.63C42.7817 47.6117 41.8833 46.55 42.9683 47.8333H39.6667V53.6667H37.3333V48.0783ZM46.6667 53.6667H42V50.1667H48.0317L39.865 40.6467L38.5 39.0367C36.505 41.37 32.095 46.5033 28.9683 50.1667H35V53.6667H29.1667C27.6196 53.6667 26.1358 53.0521 25.0419 51.9581C23.9479 50.8642 23.3333 49.3804 23.3333 47.8333C23.3333 46.2862 23.9479 44.8025 25.0419 43.7085C26.1358 42.6146 27.6196 42 29.1667 42C30.0417 42 30.6483 42.3383 31.2433 41.7433C31.3974 41.5789 31.508 41.3786 31.565 41.1606C31.6221 40.9426 31.6238 40.7138 31.57 40.495C31.3932 39.0281 31.6851 37.5428 32.4039 36.2519C33.1227 34.961 34.2315 33.9306 35.5717 33.3083C36.5635 33.0273 37.5729 32.813 38.5933 32.6667C40.2583 32.6911 41.86 33.3083 43.1108 34.4074C44.3617 35.5064 45.1799 37.0154 45.4183 38.6633C45.458 38.9437 45.5982 39.2 45.8128 39.3846C46.0275 39.5692 46.3019 39.6695 46.585 39.6667C47.5043 39.6613 48.4156 39.8371 49.2669 40.1839C50.1182 40.5307 50.8929 41.0418 51.5467 41.688C52.2005 42.3343 52.7206 43.1029 53.0774 43.9502C53.4341 44.7974 53.6205 45.7066 53.6258 46.6258C53.6312 47.5451 53.4554 48.4564 53.1086 49.3077C52.7618 50.1591 52.2507 50.9337 51.6045 51.5875C50.9582 52.2413 50.1896 52.7615 49.3424 53.1182C48.4951 53.4749 47.5859 53.6613 46.6667 53.6667Z" fill="black"/>
</g>
<defs>
<clipPath id="clip0_440_734">
<rect width="56" height="56" fill="white"/>
</clipPath>
</defs>
</svg>
