<svg width="65" height="65" viewBox="0 0 65 65" fill="none" xmlns="http://www.w3.org/2000/svg">
<path d="M39.2708 1.35413H1.35417V52.8125H39.2708V1.35413Z" fill="#FCD900"/>
<path d="M18.9583 2.70837H32.5V17.6042C32.5 17.9634 32.3573 18.3078 32.1034 18.5617C31.8494 18.8157 31.505 18.9584 31.1458 18.9584H20.3125C19.9533 18.9584 19.6089 18.8157 19.355 18.5617C19.101 18.3078 18.9583 17.9634 18.9583 17.6042V2.70837Z" fill="white"/>
<path d="M10.8333 47.3959C13.077 47.3959 14.8958 45.577 14.8958 43.3334C14.8958 41.0897 13.077 39.2709 10.8333 39.2709C8.58967 39.2709 6.77083 41.0897 6.77083 43.3334C6.77083 45.577 8.58967 47.3959 10.8333 47.3959Z" fill="#7C6F66"/>
<path d="M54.1667 47.3959H62.2917C62.6508 47.3959 62.9953 47.5385 63.2492 47.7925C63.5032 48.0465 63.6458 48.3909 63.6458 48.75V58.2292H52.8125V48.75C52.8125 48.3909 52.9552 48.0465 53.2091 47.7925C53.4631 47.5385 53.8075 47.3959 54.1667 47.3959Z" fill="#7C6F66"/>
<path d="M44.6875 12.1875C47.5607 12.1875 50.3162 13.3289 52.3478 15.3605C54.3795 17.3922 55.5208 20.1477 55.5208 23.0209V47.3959H60.9375V23.0209C60.9375 18.7111 59.2255 14.5779 56.178 11.5304C53.1305 8.48292 48.9973 6.77087 44.6875 6.77087V12.1875Z" fill="#FCD900"/>
<path d="M62.2917 58.2291H54.1667V63.6458H62.2917V58.2291Z" fill="white"/>
<path d="M44.6875 5.41663H39.2708V13.5416H44.6875V5.41663Z" fill="#7C6F66"/>
<path d="M65 48.75C65 48.0317 64.7147 47.3428 64.2067 46.8349C63.6988 46.327 63.01 46.0417 62.2917 46.0417V23.0208C62.2878 18.589 60.6124 14.3217 57.6001 11.071C54.5879 7.82026 50.4604 5.82528 46.0417 5.48438V4.0625H40.625V0H0V54.1667H40.625V14.8958H46.0417V13.65C48.2958 13.9754 50.3575 15.1014 51.8494 16.8222C53.3414 18.5429 54.164 20.7433 54.1667 23.0208V46.0417C53.4484 46.0417 52.7595 46.327 52.2516 46.8349C51.7437 47.3428 51.4583 48.0317 51.4583 48.75V59.5833H52.8125V65H63.6458V59.5833H65V48.75ZM37.9167 51.4583H2.70833V44.6875H5.59271C5.89567 45.8467 6.5744 46.8727 7.52267 47.6049C8.47094 48.3372 9.63523 48.7345 10.8333 48.7345C12.0314 48.7345 13.1957 48.3372 14.144 47.6049C15.0923 46.8727 15.771 45.8467 16.074 44.6875H37.9167V51.4583ZM10.8333 46.0417C10.2977 46.0417 9.77405 45.8828 9.32866 45.5852C8.88328 45.2876 8.53615 44.8646 8.33116 44.3698C8.12617 43.8749 8.07254 43.3303 8.17704 42.805C8.28154 42.2796 8.53948 41.797 8.91825 41.4183C9.29702 41.0395 9.7796 40.7815 10.305 40.677C10.8303 40.5725 11.3749 40.6262 11.8698 40.8312C12.3646 41.0361 12.7876 41.3833 13.0852 41.8287C13.3828 42.274 13.5417 42.7977 13.5417 43.3333C13.5417 44.0516 13.2563 44.7405 12.7484 45.2484C12.2405 45.7563 11.5516 46.0417 10.8333 46.0417ZM37.9167 41.9792H16.074C15.771 40.82 15.0923 39.794 14.144 39.0617C13.1957 38.3294 12.0314 37.9322 10.8333 37.9322C9.63523 37.9322 8.47094 38.3294 7.52267 39.0617C6.5744 39.794 5.89567 40.82 5.59271 41.9792H2.70833V2.70833H37.9167V41.9792ZM40.625 6.77083H43.3333V12.1875H40.625V6.77083ZM46.0417 10.9146V8.125C49.7531 8.46377 53.2027 10.1815 55.7096 12.9391C58.2166 15.6968 59.5988 19.294 59.5833 23.0208V46.0417H56.875V23.0208C56.8736 20.024 55.768 17.1327 53.7696 14.8995C51.7712 12.6662 49.02 11.2476 46.0417 10.9146ZM54.1667 48.75H62.2917V56.875H54.1667V48.75ZM60.9375 62.2917H55.5208V59.5833H60.9375V62.2917Z" fill="black"/>
</svg>
