<svg width="60" height="60" viewBox="0 0 60 60" fill="none" xmlns="http://www.w3.org/2000/svg">
<g clip-path="url(#clip0_440_723)">
<path d="M8.75 31.25H11.25V53.75H8.75C6.76088 53.75 4.85322 52.9598 3.4467 51.5533C2.04018 50.1468 1.25 48.2391 1.25 46.25V38.75C1.25 36.7609 2.04018 34.8532 3.4467 33.4467C4.85322 32.0402 6.76088 31.25 8.75 31.25Z" fill="#FCD900"/>
<path d="M15 56.25C14.0054 56.25 13.0516 55.8549 12.3483 55.1516C11.6451 54.4484 11.25 53.4946 11.25 52.5V32.5C11.25 31.5054 11.6451 30.5516 12.3483 29.8483C13.0516 29.1451 14.0054 28.75 15 28.75C15.9946 28.75 16.9484 29.1451 17.6517 29.8483C18.3549 30.5516 18.75 31.5054 18.75 32.5V52.5C18.75 53.4946 18.3549 54.4484 17.6517 55.1516C16.9484 55.8549 15.9946 56.25 15 56.25Z" fill="#7C6F66"/>
<path d="M51.25 53.75H48.75V31.25H51.25C53.2391 31.25 55.1468 32.0402 56.5533 33.4467C57.9598 34.8532 58.75 36.7609 58.75 38.75V46.25C58.75 48.2391 57.9598 50.1468 56.5533 51.5533C55.1468 52.9598 53.2391 53.75 51.25 53.75Z" fill="#FCD900"/>
<path d="M45 56.25C45.9946 56.25 46.9484 55.8549 47.6516 55.1516C48.3549 54.4484 48.75 53.4946 48.75 52.5V32.5C48.75 31.5054 48.3549 30.5516 47.6516 29.8483C46.9484 29.1451 45.9946 28.75 45 28.75C44.0054 28.75 43.0516 29.1451 42.3484 29.8483C41.6451 30.5516 41.25 31.5054 41.25 32.5V52.5C41.25 53.4946 41.6451 54.4484 42.3484 55.1516C43.0516 55.8549 44.0054 56.25 45 56.25Z" fill="#7C6F66"/>
<path d="M53.75 28.1249V32.4999C53.75 33.163 53.4866 33.7989 53.0178 34.2677C52.5489 34.7365 51.913 34.9999 51.25 34.9999C50.5869 34.9999 49.9511 34.7365 49.4822 34.2677C49.0134 33.7989 48.75 33.163 48.75 32.4999C48.75 26.7374 49.2 22.4124 45.525 16.9749C34.875 1.67494 11.25 9.23744 11.25 27.4999V33.7499C11.25 34.413 10.9866 35.0489 10.5178 35.5177C10.0489 35.9865 9.41303 36.2499 8.74999 36.2499C8.08695 36.2499 7.45106 35.9865 6.98222 35.5177C6.51338 35.0489 6.24999 34.413 6.24999 33.7499V27.4999C6.24617 24.3809 6.85939 21.2918 8.05431 18.4107C9.24924 15.5296 11.0023 12.9133 13.2125 10.7124C28.225 -4.35006 53.75 6.61244 53.75 28.1249Z" fill="white"/>
<path d="M45.525 16.975L44.625 17.875C44.3015 18.1929 43.918 18.4434 43.4969 18.6119C43.0758 18.7804 42.6254 18.8636 42.1718 18.8566C41.7183 18.8496 41.2707 18.7526 40.8549 18.5712C40.4392 18.3899 40.0636 18.1277 39.75 17.8C38.4709 16.5037 36.947 15.4744 35.2668 14.7718C33.5867 14.0693 31.7837 13.7075 29.9625 13.7075C28.1414 13.7075 26.3384 14.0693 24.6582 14.7718C22.978 15.4744 21.4541 16.5037 20.175 17.8C19.8631 18.1186 19.4907 18.3717 19.0796 18.5446C18.6686 18.7174 18.2272 18.8064 17.7813 18.8064C17.3354 18.8064 16.8939 18.7174 16.4829 18.5446C16.0719 18.3717 15.6994 18.1186 15.3875 17.8L14.475 16.9C16.199 14.3674 18.5174 12.2958 21.2274 10.8665C23.9373 9.43718 26.9562 8.6937 30.0199 8.7011C33.0836 8.7085 36.0989 9.46655 38.8019 10.9089C41.5049 12.3513 43.8132 14.4341 45.525 16.975Z" fill="#7C6F66"/>
<path d="M55 30.85V28.125C55.0837 23.0413 53.6262 18.0515 50.8194 13.8122C48.0125 9.57288 43.9878 6.2828 39.275 4.37498C22.4125 -2.50002 5 10.275 5 27.5V30.85C3.50483 31.5592 2.24143 32.6779 1.35642 34.0762C0.471411 35.4745 0.00107708 37.0951 0 38.75L0 46.25C0 48.5706 0.921872 50.7962 2.56282 52.4372C4.20376 54.0781 6.42936 55 8.75 55H10.675C11.2265 55.9506 12.0758 56.6931 13.0916 57.1126C14.1075 57.5321 15.2332 57.6052 16.2948 57.3206C17.3563 57.036 18.2945 56.4095 18.9643 55.5382C19.6341 54.6668 19.9981 53.599 20 52.5V32.5C19.9991 31.6227 19.7674 30.7612 19.3282 30.0018C18.889 29.2424 18.2577 28.6119 17.4978 28.1737C16.7378 27.7355 15.876 27.5049 14.9987 27.5051C14.1215 27.5053 13.2597 27.7364 12.5 28.175C12.3747 24.9516 13.1264 21.7547 14.675 18.925C15.557 19.7299 16.7167 20.1614 17.9103 20.1287C19.1039 20.0961 20.2383 19.6019 21.075 18.75C22.2377 17.5727 23.6225 16.638 25.1492 16C26.6759 15.3621 28.3141 15.0336 29.9688 15.0336C31.6234 15.0336 33.2616 15.3621 34.7883 16C36.315 16.638 37.6998 17.5727 38.8625 18.75C39.6934 19.6129 40.8253 20.1219 42.0223 20.1708C43.2193 20.2197 44.389 19.8048 45.2875 19.0125C46.8513 21.8105 47.6167 24.9842 47.5 28.1875C46.7412 27.7494 45.8806 27.5184 45.0044 27.5176C44.1282 27.5168 43.2672 27.7463 42.5076 28.1831C41.748 28.6198 41.1166 29.2485 40.6765 30.0061C40.2364 30.7638 40.0031 31.6238 40 32.5V52.5C40.0019 53.599 40.3659 54.6668 41.0357 55.5382C41.7055 56.4095 42.6437 57.036 43.7052 57.3206C44.7668 57.6052 45.8925 57.5321 46.9084 57.1126C47.9242 56.6931 48.7735 55.9506 49.325 55H51.25C53.5706 55 55.7962 54.0781 57.4372 52.4372C59.0781 50.7962 60 48.5706 60 46.25V38.75C59.9989 37.0951 59.5286 35.4745 58.6436 34.0762C57.7586 32.6779 56.4952 31.5592 55 30.85ZM8.75 52.5C7.0924 52.5 5.50269 51.8415 4.33058 50.6694C3.15848 49.4973 2.5 47.9076 2.5 46.25V38.75C2.5 37.7797 2.72591 36.8227 3.15983 35.9549C3.59375 35.087 4.22377 34.3321 5 33.75C5.00168 34.349 5.14685 34.9389 5.42335 35.4703C5.69985 36.0017 6.09963 36.4592 6.58923 36.8044C7.07883 37.1495 7.64399 37.3724 8.23741 37.4543C8.83082 37.5361 9.43522 37.4747 10 37.275V52.5H8.75ZM15 30C15.663 30 16.2989 30.2634 16.7678 30.7322C17.2366 31.2011 17.5 31.8369 17.5 32.5V52.5C17.5 53.163 17.2366 53.7989 16.7678 54.2677C16.2989 54.7366 15.663 55 15 55C14.337 55 13.7011 54.7366 13.2322 54.2677C12.7634 53.7989 12.5 53.163 12.5 52.5V32.5C12.5 31.8369 12.7634 31.2011 13.2322 30.7322C13.7011 30.2634 14.337 30 15 30ZM43.75 17C43.5427 17.2008 43.2975 17.3583 43.0287 17.4633C42.7598 17.5684 42.4728 17.6189 42.1843 17.6119C41.8958 17.6049 41.6115 17.5406 41.3481 17.4227C41.0847 17.3047 40.8474 17.1355 40.65 16.925C39.2506 15.5156 37.5851 14.3981 35.7504 13.6375C33.9156 12.8768 31.9481 12.4881 29.9619 12.494C27.9758 12.4998 26.0105 12.9 24.1803 13.6713C22.35 14.4427 20.6912 15.5699 19.3 16.9875C19.0901 17.2014 18.8376 17.3687 18.5588 17.4787C18.2801 17.5887 17.9813 17.6388 17.6819 17.6259C17.3825 17.6129 17.0892 17.5371 16.8209 17.4035C16.5527 17.2698 16.3156 17.0812 16.125 16.85C17.7351 14.748 19.8012 13.0387 22.1677 11.851C24.5342 10.6632 27.1394 10.028 29.787 9.99311C32.4346 9.95821 35.0556 10.5246 37.4526 11.6495C39.8496 12.7744 41.96 14.4286 43.625 16.4875C43.925 16.925 43.9125 16.8125 43.75 17ZM47.1375 17.15C39.2625 5.82498 26.8125 5.39998 18.5375 11.125C16.2551 12.7347 14.3207 14.7881 12.85 17.1625C9.5125 22.6875 10 27.075 10 33.75C10 34.0815 9.8683 34.3994 9.63388 34.6339C9.39946 34.8683 9.08152 35 8.75 35C8.41848 35 8.10054 34.8683 7.86612 34.6339C7.6317 34.3994 7.5 34.0815 7.5 33.75V27.5C7.48953 24.5443 8.06774 21.6161 9.2009 18.8862C10.3341 16.1563 11.9995 13.6794 14.1 11.6C28.2125 -2.60002 52.5 7.57498 52.5 28.125C52.5 31.95 52.5 32.5 52.5 32.625C52.4834 32.9565 52.3358 33.2679 52.0897 33.4906C51.8435 33.7133 51.519 33.8291 51.1875 33.8125C50.856 33.7959 50.5446 33.6483 50.3219 33.4022C50.0992 33.156 49.9834 32.8315 50 32.5C50 26.75 50.3875 22.5 47.125 17.15H47.1375ZM45 55C44.337 55 43.7011 54.7366 43.2322 54.2677C42.7634 53.7989 42.5 53.163 42.5 52.5V32.5C42.5 31.8369 42.7634 31.2011 43.2322 30.7322C43.7011 30.2634 44.337 30 45 30C45.663 30 46.2989 30.2634 46.7678 30.7322C47.2366 31.2011 47.5 31.8369 47.5 32.5V52.5C47.5 53.163 47.2366 53.7989 46.7678 54.2677C46.2989 54.7366 45.663 55 45 55ZM57.5 46.25C57.5 47.9076 56.8415 49.4973 55.6694 50.6694C54.4973 51.8415 52.9076 52.5 51.25 52.5H50V36.025C50.4747 36.1924 50.9783 36.2626 51.4808 36.2313C51.9832 36.1999 52.4742 36.0678 52.9245 35.8426C53.3747 35.6175 53.775 35.304 54.1016 34.9209C54.4281 34.5377 54.6741 34.0927 54.825 33.6125C55.6523 34.1894 56.3278 34.958 56.7936 35.8526C57.2594 36.7473 57.5018 37.7413 57.5 38.75V46.25Z" fill="black"/>
<path d="M31.25 30H28.75V52.5H31.25V30Z" fill="black"/>
<path d="M36.25 35H33.75V47.5H36.25V35Z" fill="black"/>
<path d="M26.25 35H23.75V47.5H26.25V35Z" fill="black"/>
</g>
<defs>
<clipPath id="clip0_440_723">
<rect width="60" height="60" fill="white"/>
</clipPath>
</defs>
</svg>
