<svg width="63" height="63" viewBox="0 0 63 63" fill="none" xmlns="http://www.w3.org/2000/svg">
<path d="M30.555 6.56245C13.2562 7.38932 5.06621 29.2162 18.5062 41.0156C21.4498 43.6274 23.2814 47.2672 23.625 51.1875C23.625 51.3187 22.6537 51.1875 39.375 51.1875C39.7474 47.2317 41.6272 43.5708 44.625 40.9631C58.38 28.7043 49.0743 5.72245 30.555 6.56245Z" fill="#FCD900"/>
<path d="M31.5 61.6875C29.4114 61.6875 27.4084 60.8578 25.9315 59.381C24.4547 57.9041 23.625 55.9011 23.625 53.8125V51.1875H39.375V53.8125C39.375 55.9011 38.5453 57.9041 37.0685 59.381C35.5916 60.8578 33.5886 61.6875 31.5 61.6875Z" fill="#7C6F66"/>
<path d="M44.625 27.5625V24.9375C44.625 24.5894 44.4867 24.2556 44.2406 24.0094C43.9944 23.7633 43.6606 23.625 43.3125 23.625C42.5644 23.625 41.6981 23.7431 41.3306 22.7062C40.9631 21.6694 40.3988 21 41.1731 20.2256L41.6981 19.7138C41.9386 19.4684 42.0733 19.1386 42.0733 18.795C42.0733 18.4514 41.9386 18.1216 41.6981 17.8762L39.8213 15.9994C39.5759 15.7589 39.246 15.6242 38.9025 15.6242C38.5589 15.6242 38.2291 15.7589 37.9838 15.9994C37.4719 16.5112 36.9469 17.2069 35.9494 16.7344C34.9519 16.2619 34.125 16.2225 34.125 15.1331V14.4375C34.125 14.0894 33.9867 13.7556 33.7406 13.5094C33.4944 13.2633 33.1606 13.125 32.8125 13.125H30.1875C29.8394 13.125 29.5056 13.2633 29.2594 13.5094C29.0133 13.7556 28.875 14.0894 28.875 14.4375C28.875 15.1725 28.98 16.0256 27.9562 16.3931C26.9325 16.7606 26.25 17.3381 25.4756 16.5637L24.9375 16.0388C24.6922 15.7983 24.3623 15.6636 24.0187 15.6636C23.6752 15.6636 23.3453 15.7983 23.1 16.0388L21.2231 17.9156C20.9826 18.161 20.8479 18.4908 20.8479 18.8344C20.8479 19.1779 20.9826 19.5078 21.2231 19.7531C21.7613 20.2913 22.4437 20.8031 21.9712 21.8006C21.4987 22.7981 21.4725 23.625 20.37 23.625H19.6875C19.3394 23.625 19.0056 23.7633 18.7594 24.0094C18.5133 24.2556 18.375 24.5894 18.375 24.9375V27.5625C18.375 27.9106 18.5133 28.2444 18.7594 28.4906C19.0056 28.7367 19.3394 28.875 19.6875 28.875C20.475 28.875 21.315 28.7569 21.6956 29.7806C22.0763 30.8044 22.6275 31.4606 21.8531 32.235L21.3019 32.7862C21.0614 33.0316 20.9267 33.3615 20.9267 33.705C20.9267 34.0486 21.0614 34.3784 21.3019 34.6237L23.1788 36.4875C23.4241 36.728 23.754 36.8627 24.0975 36.8627C24.4411 36.8627 24.7709 36.728 25.0162 36.4875C25.5937 35.91 26.1056 35.2406 27.1031 35.7131C28.1006 36.1856 28.9275 36.2381 28.9275 37.3275V38.115C28.9275 38.4631 29.0658 38.7969 29.3119 39.0431C29.5581 39.2892 29.8919 39.4275 30.24 39.4275H32.865C33.2131 39.4275 33.5469 39.2892 33.7931 39.0431C34.0392 38.7969 34.1775 38.4631 34.1775 38.115C34.1775 37.2881 34.0856 36.4481 35.0963 36.0806C36.1069 35.7131 36.7631 35.175 37.5375 35.9362L38.0888 36.4875C38.3341 36.728 38.6639 36.8627 39.0075 36.8627C39.351 36.8627 39.6809 36.728 39.9263 36.4875L41.8031 34.6237C42.0436 34.3784 42.1783 34.0486 42.1783 33.705C42.1783 33.3615 42.0436 33.0316 41.8031 32.7862C41.2256 32.2087 40.5562 31.71 41.0287 30.7125C41.5013 29.715 41.5669 28.875 42.6562 28.875H43.3125C43.4849 28.875 43.6555 28.8411 43.8148 28.7751C43.974 28.7091 44.1187 28.6125 44.2406 28.4906C44.3625 28.3687 44.4591 28.224 44.5251 28.0648C44.591 27.9055 44.625 27.7349 44.625 27.5625Z" fill="white"/>
<path d="M31.5 31.5C34.3995 31.5 36.75 29.1495 36.75 26.25C36.75 23.3505 34.3995 21 31.5 21C28.6005 21 26.25 23.3505 26.25 26.25C26.25 29.1495 28.6005 31.5 31.5 31.5Z" fill="#FCD900"/>
<path d="M26.25 10.5C26.25 11.8924 25.6969 13.2277 24.7123 14.2123C23.7277 15.1969 22.3924 15.75 21 15.75H5.25C4.20571 15.75 3.20419 15.3351 2.46577 14.5967C1.72734 13.8583 1.3125 12.8568 1.3125 11.8125C1.3125 10.7682 1.72734 9.76668 2.46577 9.02826C3.20419 8.28983 4.20571 7.87499 5.25 7.87499C6.75938 7.87499 6.5625 8.42624 6.5625 7.87499C6.55942 6.337 7.09661 4.84678 8.0803 3.6645C9.06399 2.48222 10.4317 1.683 11.9446 1.40636C13.4575 1.12972 15.0195 1.39325 16.3579 2.15092C17.6964 2.9086 18.7261 4.1123 19.2675 5.55186C20.0582 5.27543 20.9037 5.19223 21.7331 5.3092C22.5626 5.42618 23.352 5.73993 24.0355 6.22427C24.719 6.7086 25.2766 7.34944 25.6618 8.09327C26.0471 8.8371 26.2488 9.66232 26.25 10.5ZM61.6875 35.4375C61.6875 36.8299 61.1344 38.1652 60.1498 39.1498C59.1652 40.1344 57.8299 40.6875 56.4375 40.6875H40.6875C39.6432 40.6875 38.6417 40.2726 37.9033 39.5342C37.1648 38.7958 36.75 37.7943 36.75 36.75C36.75 35.7057 37.1648 34.7042 37.9033 33.9658C38.6417 33.2273 39.6432 32.8125 40.6875 32.8125C42.1969 32.8125 42 33.3637 42 32.8125C41.9969 31.2745 42.5341 29.7843 43.5178 28.602C44.5015 27.4197 45.8692 26.6205 47.3821 26.3439C48.895 26.0672 50.457 26.3307 51.7954 27.0884C53.1339 27.8461 54.1636 29.0498 54.705 30.4894C55.4957 30.2129 56.3412 30.1297 57.1706 30.2467C58.0001 30.3637 58.7895 30.6774 59.473 31.1618C60.1565 31.6461 60.7141 32.2869 61.0993 33.0308C61.4846 33.7746 61.6863 34.5998 61.6875 35.4375Z" fill="white"/>
<path d="M60.1912 30.0562C58.8079 29.092 57.1066 28.6972 55.44 28.9537C54.7713 27.6853 53.7503 26.637 52.5 25.935C52.4543 22.7151 51.6688 19.5489 50.2041 16.6811C48.7394 13.8132 46.6348 11.3207 44.0531 9.39608C41.4713 7.47149 38.4815 6.16641 35.3148 5.58176C32.1481 4.99711 28.8894 5.14855 25.7906 6.02436C25.0661 5.23847 24.1585 4.64388 23.1487 4.29352C22.1388 3.94317 21.058 3.84791 20.0025 4.01624C16.5112 -2.45439 6.44435 -0.669389 5.34185 6.56249C4.65241 6.55645 3.96854 6.68628 3.32927 6.94454C2.69 7.2028 2.10786 7.58445 1.61609 8.06769C1.12432 8.55093 0.732539 9.12631 0.463128 9.76096C0.193718 10.3956 0.0519489 11.0771 0.0459163 11.7665C0.0398837 12.456 0.169705 13.1399 0.427969 13.7791C0.686233 14.4184 1.06788 15.0005 1.55112 15.4923C2.03436 15.9841 2.60974 16.3759 3.24439 16.6453C3.87904 16.9147 4.56054 17.0565 5.24998 17.0625H12.6919C10.6068 21.1733 9.96109 25.8648 10.8582 30.386C11.7553 34.9072 14.1433 38.9967 17.64 42C20.3321 44.3722 22.0057 47.6912 22.3125 51.2662V53.8125C22.3125 56.2492 23.2804 58.586 25.0034 60.309C26.7264 62.032 29.0633 63 31.5 63C33.9367 63 36.2735 62.032 37.9965 60.309C39.7195 58.586 40.6875 56.2492 40.6875 53.8125V51.3056C41.008 47.7233 42.6783 44.3968 45.36 42H56.4375C57.8338 41.9995 59.1935 41.5536 60.319 40.7273C61.4445 39.9009 62.277 38.7371 62.6957 37.4051C63.1143 36.0731 63.0972 34.6422 62.6468 33.3206C62.1964 31.9989 61.3362 30.8554 60.1912 30.0562ZM5.24998 14.4375C4.55379 14.4375 3.88611 14.1609 3.39382 13.6686C2.90154 13.1764 2.62498 12.5087 2.62498 11.8125C2.62498 11.1163 2.90154 10.4486 3.39382 9.95633C3.88611 9.46405 4.55379 9.18749 5.24998 9.18749C5.47175 9.17171 5.69449 9.19843 5.90623 9.26624C6.125 9.39999 6.37817 9.46673 6.63445 9.45822C6.89073 9.4497 7.1389 9.3663 7.34832 9.21832C7.55773 9.07033 7.7192 8.86425 7.8128 8.62551C7.9064 8.38678 7.92801 8.12586 7.87498 7.87499C7.86938 6.64151 8.29826 5.44545 9.08641 4.49661C9.87455 3.54776 10.9716 2.90672 12.1852 2.68593C13.3988 2.46514 14.6513 2.6787 15.7231 3.28915C16.795 3.8996 17.6177 4.86796 18.0469 6.02436C18.1705 6.33743 18.4098 6.591 18.7151 6.73268C19.0205 6.87436 19.3686 6.89331 19.6875 6.78561C20.2279 6.59549 20.8034 6.5256 21.3736 6.58082C21.9439 6.63605 22.4952 6.81505 22.9892 7.10534C23.4831 7.39564 23.9078 7.79022 24.2335 8.26156C24.5592 8.7329 24.7781 9.26965 24.8749 9.83433C24.9718 10.399 24.9443 10.978 24.7942 11.531C24.6442 12.0839 24.3754 12.5974 24.0064 13.0357C23.6374 13.474 23.1773 13.8266 22.658 14.0687C22.1387 14.3108 21.5729 14.4366 21 14.4375H5.24998ZM38.0625 53.8125C38.0625 55.553 37.3711 57.2222 36.1404 58.4529C34.9097 59.6836 33.2405 60.375 31.5 60.375C29.7595 60.375 28.0903 59.6836 26.8596 58.4529C25.6289 57.2222 24.9375 55.553 24.9375 53.8125C24.9375 52.3556 24.9375 52.5 25.0819 52.5C26.7487 52.5 30.3319 52.5 38.0625 52.5V53.8125ZM38.22 49.875H24.78C24.181 46.0634 22.2681 42.5812 19.3725 40.0312C16.1522 37.25 14.0148 33.4232 13.3355 29.2228C12.6563 25.0224 13.4786 20.7169 15.6581 17.0625H21C22.0443 17.0624 23.0736 16.8131 24.0022 16.3353C24.9309 15.8574 25.732 15.1649 26.3392 14.3151C26.9463 13.4654 27.3419 12.483 27.493 11.4496C27.6442 10.4163 27.5465 9.36176 27.2081 8.37374C29.8156 7.72733 32.5335 7.66308 35.1687 8.18555C37.8039 8.70801 40.2917 9.80437 42.4553 11.3967C44.619 12.9891 46.4054 15.0384 47.6878 17.3991C48.9701 19.7597 49.7169 22.3738 49.875 25.0556C48.8545 24.8805 47.8095 24.9084 46.7998 25.1377C45.7901 25.3669 44.8356 25.793 43.9907 26.3916C43.1459 26.9901 42.4274 27.7494 41.8764 28.626C41.3253 29.5026 40.9525 30.4792 40.7794 31.5C40.0822 31.4878 39.3896 31.6146 38.742 31.8729C38.0944 32.1313 37.5048 32.5161 37.0075 33.0048C36.5102 33.4935 36.1153 34.0764 35.8457 34.7194C35.5761 35.3625 35.4374 36.0527 35.4375 36.75C35.4375 38.1424 35.9906 39.4777 36.9752 40.4623C37.9597 41.4469 39.2951 42 40.6875 42H41.7506C39.9028 44.2695 38.6851 46.9856 38.22 49.875ZM56.4375 39.375H40.6875C39.9913 39.375 39.3236 39.0984 38.8313 38.6061C38.339 38.1139 38.0625 37.4462 38.0625 36.75C38.0625 36.0538 38.339 35.3861 38.8313 34.8938C39.3236 34.4015 39.9913 34.125 40.6875 34.125C40.9092 34.1116 41.1315 34.1383 41.3437 34.2037C41.5625 34.3375 41.8157 34.4042 42.0719 34.3957C42.3282 34.3872 42.5764 34.3038 42.7858 34.1558C42.9952 34.0078 43.1567 33.8017 43.2503 33.563C43.3439 33.3243 43.3655 33.0634 43.3125 32.8125C43.3069 31.579 43.7358 30.383 44.5239 29.4341C45.312 28.4853 46.4091 27.8442 47.6227 27.6234C48.8363 27.4026 50.0888 27.6162 51.1606 28.2266C52.2325 28.8371 53.0552 29.8055 53.4844 30.9619C53.608 31.2811 53.8516 31.5393 54.1629 31.6815C54.4743 31.8237 54.829 31.8387 55.1512 31.7231C55.7373 31.512 56.3657 31.446 56.9828 31.5305C57.5999 31.6151 58.1873 31.8478 58.695 32.2087C59.3823 32.6885 59.8986 33.3751 60.1687 34.1686C60.4389 34.9621 60.4487 35.8211 60.1969 36.6206C59.945 37.42 59.4446 38.1183 58.7684 38.6137C58.0923 39.1091 57.2757 39.3758 56.4375 39.375Z" fill="black"/>
</svg>
