<svg width="24" height="24" viewBox="0 0 24 24" fill="none" xmlns="http://www.w3.org/2000/svg">
<path d="M23.1971 18.957C23.3122 19.3028 23.1019 19.887 22.7276 20.2613L20.3539 22.635C19.7925 23.1968 18.738 23.4132 18.0007 23.118L16.9039 22.6797C10.7602 20.2219 3.77698 13.239 1.31961 7.09505L0.880856 5.99855C0.586106 5.2613 0.802481 4.2068 1.36386 3.64542L3.73761 1.27167C4.11186 0.89705 4.69648 0.686675 5.04186 0.802175C6.94236 1.43555 8.99961 3.49242 9.63298 5.39292C9.74811 5.7383 9.53773 6.32292 9.16348 6.69717L7.80711 8.05355C7.43248 8.4278 7.32111 9.1163 7.55773 9.58955L7.91136 10.2972C8.97673 12.4279 11.5714 15.0225 13.7021 16.0879L14.4094 16.4415C14.883 16.6782 15.5711 16.5664 15.9454 16.1922L17.3021 14.8358C17.6764 14.4615 18.2606 14.2512 18.6064 14.3663C20.5065 14.9997 22.5637 17.0569 23.1971 18.957Z" fill="black"/>
<path d="M11.0793 4.35521L11.1671 5.31709C11.1911 5.58071 11.3715 5.76671 11.5702 5.73184C11.5702 5.73184 11.9381 5.70446 12.3086 5.71459C13.8787 5.75171 15.3742 6.39971 16.4831 7.51534C17.5987 8.62421 18.2463 10.1197 18.2868 11.6928C18.3007 12.2021 18.2441 12.7057 18.2389 12.7256C18.1744 12.9825 18.3311 13.239 18.5891 13.2986L19.5217 13.5138C19.7797 13.5735 20.0407 13.413 20.1037 13.1561C20.1476 12.9795 20.2211 12.3138 20.2031 11.6422C20.1521 9.57709 19.3008 7.61359 17.8395 6.15896C16.3845 4.69721 14.4213 3.84596 12.3562 3.79534C11.9115 3.78334 11.4701 3.81146 11.4701 3.81146C11.2305 3.84784 11.0557 4.09159 11.0793 4.35521Z" fill="black"/>
<path fill-rule="evenodd" clip-rule="evenodd" d="M10.8022 1.30577L10.8892 2.26052C10.9132 2.52415 11.1266 2.71315 11.3659 2.68202C11.3659 2.68202 11.8035 2.65877 12.2407 2.66927C14.6314 2.73377 16.9001 3.71402 18.582 5.4094L18.5887 5.41615C18.5854 5.41277 18.5854 5.41277 18.582 5.4094C18.5854 5.41277 18.5854 5.41277 18.5854 5.41277L18.5887 5.41615C20.2845 7.09802 21.2677 9.37015 21.3289 11.7574C21.3461 12.4714 21.2734 13.1858 21.2212 13.4138C21.1624 13.6721 21.324 13.9298 21.582 13.9894L22.5176 14.2054C22.7756 14.2646 23.0325 14.1034 23.0914 13.8454C23.1791 13.4614 23.2676 12.5861 23.2481 11.7101C23.1735 8.82752 21.99 6.0844 19.9417 4.0564C19.9417 4.0564 19.9417 4.0564 19.9384 4.05302L19.9417 4.0564C17.9141 2.00815 15.1706 0.824648 12.2917 0.753398C11.778 0.741023 11.2657 0.766148 11.235 0.769898C10.9721 0.802148 10.7782 1.04215 10.8022 1.30577ZM19.9384 4.05302C19.9417 4.0564 19.9417 4.0564 19.9417 4.0564L19.9384 4.05302Z" fill="black"/>
</svg>
