<svg width="70" height="70" viewBox="0 0 70 70" fill="none" xmlns="http://www.w3.org/2000/svg">
<path d="M65.625 1.45831H4.375C2.76417 1.45831 1.45834 2.76415 1.45834 4.37498V65.625C1.45834 67.2358 2.76417 68.5416 4.375 68.5416H65.625C67.2358 68.5416 68.5417 67.2358 68.5417 65.625V4.37498C68.5417 2.76415 67.2358 1.45831 65.625 1.45831Z" fill="white"/>
<path d="M36.4583 10.2083H68.5417V4.37498C68.5417 3.60143 68.2344 2.85957 67.6874 2.31258C67.1404 1.7656 66.3985 1.45831 65.625 1.45831H36.4583V10.2083Z" fill="#7C6F66"/>
<path d="M40.8333 32.0833C40.8351 34.3821 40.384 36.6588 39.5057 38.7832C38.6274 40.9076 37.3392 42.8382 35.7146 44.4646L30.625 39.375C31.5685 38.4123 32.312 37.2723 32.8126 36.0208C33.3132 34.7693 33.561 33.4311 33.5417 32.0833H40.8333Z" fill="#FCD900"/>
<path d="M35.7146 44.4646C34.0882 46.0892 32.1576 47.3774 30.0332 48.2557C27.9088 49.134 25.6321 49.5851 23.3333 49.5833V42.2917C24.6811 42.311 26.0194 42.0632 27.2709 41.5626C28.5224 41.062 29.6623 40.3185 30.625 39.375L35.7146 44.4646Z" fill="#7C6F66"/>
<path d="M23.3333 42.2917V49.5833C21.0345 49.5851 18.7579 49.134 16.6335 48.2557C14.5091 47.3774 12.5785 46.0892 10.9521 44.4646L16.1146 39.375C18.041 41.2627 20.6363 42.3113 23.3333 42.2917Z" fill="#FCD900"/>
<path d="M16.1146 39.375L10.9521 44.4646C9.32748 42.8382 8.03924 40.9076 7.16095 38.7832C6.28265 36.6588 5.83153 34.3821 5.83333 32.0833H13.125C13.1153 33.4362 13.3746 34.7775 13.8878 36.0293C14.401 37.281 15.158 38.4183 16.1146 39.375Z" fill="#7C6F66"/>
<path d="M16.1146 24.8646C15.1667 25.8126 14.4148 26.938 13.9018 28.1766C13.3889 29.4152 13.1249 30.7427 13.125 32.0833H5.83333C5.83153 29.7845 6.28265 27.5079 7.16095 25.3835C8.03924 23.2591 9.32748 21.3285 10.9521 19.7021L16.1146 24.8646Z" fill="#FCD900"/>
<path d="M23.3333 14.5833V21.875C21.9927 21.8749 20.6652 22.1389 19.4266 22.6518C18.188 23.1648 17.0626 23.9167 16.1146 24.8646L10.9521 19.7021C12.5785 18.0775 14.5091 16.7892 16.6335 15.9109C18.7579 15.0326 21.0345 14.5815 23.3333 14.5833Z" fill="#7C6F66"/>
<path d="M35.7146 19.7021L30.625 24.8646C29.6683 23.9079 28.5311 23.151 27.2793 22.6378C26.0275 22.1245 24.6862 21.8653 23.3333 21.875V14.5833C25.6321 14.5815 27.9088 15.0326 30.0332 15.9109C32.1576 16.7892 34.0882 18.0775 35.7146 19.7021Z" fill="#FCD900"/>
<path d="M40.8333 32.0833H33.5417C33.5613 29.3863 32.5127 26.791 30.625 24.8646L35.7875 19.7021C39.0418 22.9987 40.8564 27.4511 40.8333 32.0833Z" fill="#7C6F66"/>
<path d="M23.3333 36.4583C25.7496 36.4583 27.7083 34.4996 27.7083 32.0833C27.7083 29.6671 25.7496 27.7083 23.3333 27.7083C20.9171 27.7083 18.9583 29.6671 18.9583 32.0833C18.9583 34.4996 20.9171 36.4583 23.3333 36.4583Z" fill="#FCD900"/>
<path d="M62.7083 23.3333H45.2083V26.25H62.7083V23.3333Z" fill="#FCD900"/>
<path d="M62.7083 32.0833H45.2083V35H62.7083V32.0833Z" fill="#7C6F66"/>
<path d="M65.625 0H4.375C3.21468 0 2.10188 0.460936 1.28141 1.28141C0.460936 2.10188 0 3.21468 0 4.375L0 65.625C0 66.7853 0.460936 67.8981 1.28141 68.7186C2.10188 69.5391 3.21468 70 4.375 70H65.625C66.7853 70 67.8981 69.5391 68.7186 68.7186C69.5391 67.8981 70 66.7853 70 65.625V4.375C70 3.21468 69.5391 2.10188 68.7186 1.28141C67.8981 0.460936 66.7853 0 65.625 0V0ZM65.625 2.91667C66.0118 2.91667 66.3827 3.07031 66.6562 3.3438C66.9297 3.61729 67.0833 3.98823 67.0833 4.375V8.75H37.9167V2.91667H65.625ZM67.0833 65.625C67.0833 66.0118 66.9297 66.3827 66.6562 66.6562C66.3827 66.9297 66.0118 67.0833 65.625 67.0833H4.375C3.98823 67.0833 3.61729 66.9297 3.3438 66.6562C3.07031 66.3827 2.91667 66.0118 2.91667 65.625V4.375C2.91667 3.98823 3.07031 3.61729 3.3438 3.3438C3.61729 3.07031 3.98823 2.91667 4.375 2.91667H35V11.6667H67.0833V65.625Z" fill="black"/>
<path d="M17.5 5.83331H5.83334V8.74998H17.5V5.83331Z" fill="black"/>
<path d="M53.9583 46.6667H45.2083V49.5834H53.9583V46.6667Z" fill="black"/>
<path d="M62.7083 40.8333H45.2083V43.75H62.7083V40.8333Z" fill="black"/>
<path d="M11.6667 58.3333H5.83334V64.1666H11.6667V58.3333Z" fill="#7C6F66"/>
<path d="M20.4167 58.3333H14.5833V64.1666H20.4167V58.3333Z" fill="#FCD900"/>
<path d="M29.1667 58.3333H23.3333V64.1666H29.1667V58.3333Z" fill="#7C6F66"/>
<path d="M37.9167 58.3333H32.0833V64.1666H37.9167V58.3333Z" fill="#FCD900"/>
</svg>
