<svg width="70" height="70" viewBox="0 0 70 70" fill="none" xmlns="http://www.w3.org/2000/svg">
<path d="M7.29165 1.45831H1.45831V7.29165H7.29165V1.45831Z" fill="#7C6F66"/>
<path d="M68.5416 1.45831H62.7083V7.29165H68.5416V1.45831Z" fill="#7C6F66"/>
<path d="M7.29165 62.7083H1.45831V68.5416H7.29165V62.7083Z" fill="#7C6F66"/>
<path d="M68.5416 62.7083H62.7083V68.5416H68.5416V62.7083Z" fill="#7C6F66"/>
<path d="M53.9584 23.3333L35 33.5417L16.0417 23.3333L35 13.125L53.9584 23.3333Z" fill="#FCD900"/>
<path d="M35 33.5416V56.875L16.0417 46.6666V23.3333L35 33.5416Z" fill="white"/>
<path d="M53.9583 23.3333V46.6666L35 56.875V33.5416L53.9583 23.3333Z" fill="#7C6F66"/>
<path d="M0 8.75H8.75V0H0V8.75ZM2.91667 2.91667H5.83333V5.83333H2.91667V2.91667ZM61.25 0V8.75H70V0H61.25ZM67.0833 5.83333H64.1667V2.91667H67.0833V5.83333Z" fill="black"/>
<path d="M20.4166 2.91669H14.5833V5.83335H20.4166V2.91669Z" fill="black"/>
<path d="M29.1666 2.91669H23.3333V5.83335H29.1666V2.91669Z" fill="black"/>
<path d="M37.9166 2.91669H32.0833V5.83335H37.9166V2.91669Z" fill="black"/>
<path d="M46.6666 2.91669H40.8333V5.83335H46.6666V2.91669Z" fill="black"/>
<path d="M55.4166 2.91669H49.5833V5.83335H55.4166V2.91669Z" fill="black"/>
<path d="M0 70H8.75V61.25H0V70ZM2.91667 64.1667H5.83333V67.0833H2.91667V64.1667ZM61.25 70H70V61.25H61.25V70ZM64.1667 64.1667H67.0833V67.0833H64.1667V64.1667Z" fill="black"/>
<path d="M20.4166 64.1667H14.5833V67.0834H20.4166V64.1667Z" fill="black"/>
<path d="M29.1666 64.1667H23.3333V67.0834H29.1666V64.1667Z" fill="black"/>
<path d="M37.9166 64.1667H32.0833V67.0834H37.9166V64.1667Z" fill="black"/>
<path d="M46.6666 64.1667H40.8333V67.0834H46.6666V64.1667Z" fill="black"/>
<path d="M55.4166 64.1667H49.5833V67.0834H55.4166V64.1667Z" fill="black"/>
<path d="M5.83335 14.5833H2.91669V20.4166H5.83335V14.5833Z" fill="black"/>
<path d="M5.83335 23.3333H2.91669V29.1666H5.83335V23.3333Z" fill="black"/>
<path d="M5.83335 32.0833H2.91669V37.9166H5.83335V32.0833Z" fill="black"/>
<path d="M5.83335 40.8333H2.91669V46.6666H5.83335V40.8333Z" fill="black"/>
<path d="M5.83335 49.5833H2.91669V55.4166H5.83335V49.5833Z" fill="black"/>
<path d="M67.0834 49.5833H64.1667V55.4166H67.0834V49.5833Z" fill="black"/>
<path d="M67.0834 40.8333H64.1667V46.6666H67.0834V40.8333Z" fill="black"/>
<path d="M67.0834 32.0833H64.1667V37.9166H67.0834V32.0833Z" fill="black"/>
<path d="M67.0834 23.3333H64.1667V29.1666H67.0834V23.3333Z" fill="black"/>
<path d="M67.0834 14.5833H64.1667V20.4166H67.0834V14.5833Z" fill="black"/>
<path d="M35 11.4625L14.5833 22.4584V47.5417L35 58.5229L55.4166 47.5417V22.4584C53.3312 21.35 56.3937 22.9979 35 11.4625ZM35 14.7875L50.8812 23.3334L35 31.8792L19.1187 23.3334L35 14.7875ZM33.5416 54.4396L17.5 45.7917V25.7834L33.5416 34.4167V54.4396ZM52.5 45.7917L36.4583 54.4396V34.4167L52.5 25.7834V45.7917Z" fill="black"/>
</svg>
