<svg width="70" height="70" viewBox="0 0 70 70" fill="none" xmlns="http://www.w3.org/2000/svg">
<path d="M68.5417 11.6667H1.45833V62.7084H68.5417V11.6667Z" fill="white"/>
<path d="M13.125 17.5C12.3514 17.5 11.6096 17.1927 11.0626 16.6457C10.5156 16.0987 10.2083 15.3569 10.2083 14.5833V8.74998C10.2083 7.97643 10.5156 7.23457 11.0626 6.68758C11.6096 6.1406 12.3514 5.83331 13.125 5.83331C13.8985 5.83331 14.6404 6.1406 15.1874 6.68758C15.7344 7.23457 16.0417 7.97643 16.0417 8.74998V14.5833C16.0417 15.3569 15.7344 16.0987 15.1874 16.6457C14.6404 17.1927 13.8985 17.5 13.125 17.5ZM27.7083 17.5C26.9348 17.5 26.1929 17.1927 25.6459 16.6457C25.099 16.0987 24.7917 15.3569 24.7917 14.5833V8.74998C24.7917 7.97643 25.099 7.23457 25.6459 6.68758C26.1929 6.1406 26.9348 5.83331 27.7083 5.83331C28.4819 5.83331 29.2237 6.1406 29.7707 6.68758C30.3177 7.23457 30.625 7.97643 30.625 8.74998V14.5833C30.625 15.3569 30.3177 16.0987 29.7707 16.6457C29.2237 17.1927 28.4819 17.5 27.7083 17.5ZM42.2917 17.5C41.5181 17.5 40.7762 17.1927 40.2293 16.6457C39.6823 16.0987 39.375 15.3569 39.375 14.5833V8.74998C39.375 7.97643 39.6823 7.23457 40.2293 6.68758C40.7762 6.1406 41.5181 5.83331 42.2917 5.83331C43.0652 5.83331 43.8071 6.1406 44.3541 6.68758C44.901 7.23457 45.2083 7.97643 45.2083 8.74998V14.5833C45.2083 15.3569 44.901 16.0987 44.3541 16.6457C43.8071 17.1927 43.0652 17.5 42.2917 17.5ZM56.875 17.5C56.1014 17.5 55.3596 17.1927 54.8126 16.6457C54.2656 16.0987 53.9583 15.3569 53.9583 14.5833V8.74998C53.9583 7.97643 54.2656 7.23457 54.8126 6.68758C55.3596 6.1406 56.1014 5.83331 56.875 5.83331C57.6485 5.83331 58.3904 6.1406 58.9374 6.68758C59.4844 7.23457 59.7917 7.97643 59.7917 8.74998V14.5833C59.7917 15.3569 59.4844 16.0987 58.9374 16.6457C58.3904 17.1927 57.6485 17.5 56.875 17.5Z" fill="#7C6F66"/>
<path d="M59.7917 37.9167H48.125V61.25H59.7917V37.9167Z" fill="#FCD900"/>
<path d="M59.7917 37.9167H48.125L51.7708 30.625H56.1458L59.7917 37.9167Z" fill="#7C6F66"/>
<path d="M61.25 10.2083V8.75C61.25 7.58968 60.7891 6.47688 59.9686 5.65641C59.1481 4.83594 58.0353 4.375 56.875 4.375C55.7147 4.375 54.6019 4.83594 53.7814 5.65641C52.9609 6.47688 52.5 7.58968 52.5 8.75V10.2083H46.6667V8.75C46.6667 7.58968 46.2057 6.47688 45.3853 5.65641C44.5648 4.83594 43.452 4.375 42.2917 4.375C41.1313 4.375 40.0185 4.83594 39.1981 5.65641C38.3776 6.47688 37.9167 7.58968 37.9167 8.75V10.2083H32.0833V8.75C32.0833 7.58968 31.6224 6.47688 30.8019 5.65641C29.9815 4.83594 28.8687 4.375 27.7083 4.375C26.548 4.375 25.4352 4.83594 24.6147 5.65641C23.7943 6.47688 23.3333 7.58968 23.3333 8.75V10.2083H17.5V8.75C17.5 7.58968 17.0391 6.47688 16.2186 5.65641C15.3981 4.83594 14.2853 4.375 13.125 4.375C11.9647 4.375 10.8519 4.83594 10.0314 5.65641C9.21094 6.47688 8.75 7.58968 8.75 8.75V10.2083H0V64.1667H70V10.2083H61.25ZM55.4167 8.75C55.4167 8.36323 55.5703 7.99229 55.8438 7.7188C56.1173 7.44531 56.4882 7.29167 56.875 7.29167C57.2618 7.29167 57.6327 7.44531 57.9062 7.7188C58.1797 7.99229 58.3333 8.36323 58.3333 8.75V14.5833C58.3333 14.9701 58.1797 15.341 57.9062 15.6145C57.6327 15.888 57.2618 16.0417 56.875 16.0417C56.4882 16.0417 56.1173 15.888 55.8438 15.6145C55.5703 15.341 55.4167 14.9701 55.4167 14.5833V8.75ZM40.8333 8.75C40.8333 8.36323 40.987 7.99229 41.2605 7.7188C41.534 7.44531 41.9049 7.29167 42.2917 7.29167C42.6784 7.29167 43.0494 7.44531 43.3229 7.7188C43.5964 7.99229 43.75 8.36323 43.75 8.75V14.5833C43.75 14.9701 43.5964 15.341 43.3229 15.6145C43.0494 15.888 42.6784 16.0417 42.2917 16.0417C41.9049 16.0417 41.534 15.888 41.2605 15.6145C40.987 15.341 40.8333 14.9701 40.8333 14.5833V8.75ZM26.25 8.75C26.25 8.36323 26.4036 7.99229 26.6771 7.7188C26.9506 7.44531 27.3216 7.29167 27.7083 7.29167C28.0951 7.29167 28.466 7.44531 28.7395 7.7188C29.013 7.99229 29.1667 8.36323 29.1667 8.75V14.5833C29.1667 14.9701 29.013 15.341 28.7395 15.6145C28.466 15.888 28.0951 16.0417 27.7083 16.0417C27.3216 16.0417 26.9506 15.888 26.6771 15.6145C26.4036 15.341 26.25 14.9701 26.25 14.5833V8.75ZM11.6667 8.75C11.6667 8.36323 11.8203 7.99229 12.0938 7.7188C12.3673 7.44531 12.7382 7.29167 13.125 7.29167C13.5118 7.29167 13.8827 7.44531 14.1562 7.7188C14.4297 7.99229 14.5833 8.36323 14.5833 8.75V14.5833C14.5833 14.9701 14.4297 15.341 14.1562 15.6145C13.8827 15.888 13.5118 16.0417 13.125 16.0417C12.7382 16.0417 12.3673 15.888 12.0938 15.6145C11.8203 15.341 11.6667 14.9701 11.6667 14.5833V8.75ZM67.0833 61.25H2.91667V13.125H8.75V14.5833C8.75 15.7437 9.21094 16.8565 10.0314 17.6769C10.8519 18.4974 11.9647 18.9583 13.125 18.9583C14.2853 18.9583 15.3981 18.4974 16.2186 17.6769C17.0391 16.8565 17.5 15.7437 17.5 14.5833V13.125H23.3333V14.5833C23.3333 15.7437 23.7943 16.8565 24.6147 17.6769C25.4352 18.4974 26.548 18.9583 27.7083 18.9583C28.8687 18.9583 29.9815 18.4974 30.8019 17.6769C31.6224 16.8565 32.0833 15.7437 32.0833 14.5833V13.125H37.9167V14.5833C37.9167 15.7437 38.3776 16.8565 39.1981 17.6769C40.0185 18.4974 41.1313 18.9583 42.2917 18.9583C43.452 18.9583 44.5648 18.4974 45.3853 17.6769C46.2057 16.8565 46.6667 15.7437 46.6667 14.5833V13.125H52.5V14.5833C52.5 15.7437 52.9609 16.8565 53.7814 17.6769C54.6019 18.4974 55.7147 18.9583 56.875 18.9583C58.0353 18.9583 59.1481 18.4974 59.9686 17.6769C60.7891 16.8565 61.25 15.7437 61.25 14.5833V13.125H67.0833V61.25Z" fill="black"/>
<path d="M51.7708 30.625H56.1458L53.9583 26.25L51.7708 30.625Z" fill="black"/>
<path d="M48.125 24.7916C41.8801 24.784 35.8575 27.1088 31.2375 31.3104C30.5919 31.8656 29.7874 32.2027 28.9388 32.2734C28.0903 32.3441 27.2411 32.1449 26.5125 31.7041L25.9146 31.3396C24.6908 30.6148 23.2759 30.2784 21.8568 30.3748C20.4378 30.4711 19.0813 30.9957 17.9667 31.8791C17.1285 32.5481 16.0594 32.8577 14.9934 32.7402C13.9275 32.6227 12.9515 32.0876 12.2792 31.2521L9.88751 28.2625C9.63672 27.9968 9.29534 27.8349 8.93092 27.8089C8.56649 27.7829 8.20557 27.8946 7.91957 28.1219C7.63356 28.3492 7.4433 28.6756 7.38644 29.0365C7.32958 29.3974 7.41026 29.7665 7.61251 30.0708C9.98959 32.9875 11.4917 35.6854 15.4438 35.6854C17.0253 35.7097 18.5681 35.1955 19.8188 34.2271C20.4667 33.7118 21.2563 33.4064 22.0824 33.3517C22.9084 33.297 23.7314 33.4955 24.4417 33.9208L25.0396 34.2854C26.297 35.0234 27.7542 35.3486 29.2061 35.2152C30.658 35.0818 32.0315 34.4965 33.1333 33.5416C37.2284 29.7959 42.5752 27.7154 48.125 27.7083C48.5118 27.7083 48.8827 27.5547 49.1562 27.2812C49.4297 27.0077 49.5833 26.6368 49.5833 26.25C49.5833 25.8632 49.4297 25.4923 49.1562 25.2188C48.8827 24.9453 48.5118 24.7916 48.125 24.7916Z" fill="black"/>
<path d="M30.625 53.9583H7.29167V56.875H30.625V53.9583Z" fill="#7C6F66"/>
<path d="M21.875 48.125H7.29167V51.0417H21.875V48.125Z" fill="#7C6F66"/>
</svg>
