<svg width="70" height="70" viewBox="0 0 70 70" fill="none" xmlns="http://www.w3.org/2000/svg">
<path d="M51.0417 1.45831H1.45834V68.5416H51.0417V1.45831Z" fill="white"/>
<path d="M49.5833 61.25H2.91666V67.0833H49.5833V61.25Z" fill="#FCD900"/>
<path d="M11.6667 17.5C14.8883 17.5 17.5 14.8883 17.5 11.6666C17.5 8.44499 14.8883 5.83331 11.6667 5.83331C8.44502 5.83331 5.83334 8.44499 5.83334 11.6666C5.83334 14.8883 8.44502 17.5 11.6667 17.5Z" fill="#FCD900"/>
<path d="M46.6667 7.29169H20.4167V10.2084H46.6667V7.29169Z" fill="#7C6F66"/>
<path d="M43.75 13.125H23.3333V16.0417H43.75V13.125Z" fill="#7C6F66"/>
<path d="M68.5417 8.75H36.4583V32.0833H68.5417V8.75Z" fill="#FCD900"/>
<path d="M67.0833 10.2083H37.9167V16.0416H67.0833V10.2083Z" fill="white"/>
<path d="M67.0833 42.2917H32.0833C31.2779 42.2917 30.625 42.9446 30.625 43.75V67.0834C30.625 67.8888 31.2779 68.5417 32.0833 68.5417H67.0833C67.8887 68.5417 68.5417 67.8888 68.5417 67.0834V43.75C68.5417 42.9446 67.8887 42.2917 67.0833 42.2917Z" fill="#FCD900"/>
<path d="M70 33.5417V7.29167H52.5V0H0V70H67.0833C67.8569 70 68.5988 69.6927 69.1457 69.1457C69.6927 68.5988 70 67.8569 70 67.0833V43.75C70 42.9765 69.6927 42.2346 69.1457 41.6876C68.5988 41.1406 67.8569 40.8333 67.0833 40.8333H52.5V33.5417H70ZM67.0833 10.2083V30.625H37.9167V10.2083H67.0833ZM67.0833 43.75V67.0833H32.0833V43.75H67.0833ZM49.5833 40.8333H32.0833C31.3098 40.8333 30.5679 41.1406 30.0209 41.6876C29.474 42.2346 29.1667 42.9765 29.1667 43.75V67.0833H2.91667V2.91667H49.5833V7.29167H35V33.5417H49.5833V40.8333Z" fill="black"/>
<path d="M40.8333 18.9583V21.875H52.5V18.9583H40.8333ZM40.8333 24.7916V27.7083H58.3333V24.7916H40.8333Z" fill="black"/>
<path d="M32.0833 43.75L49.5833 56.875L67.0833 43.75H32.0833Z" fill="#7C6F66"/>
<path d="M49.5833 61.25C51.9996 61.25 53.9583 59.2912 53.9583 56.875C53.9583 54.4588 51.9996 52.5 49.5833 52.5C47.1671 52.5 45.2083 54.4588 45.2083 56.875C45.2083 59.2912 47.1671 61.25 49.5833 61.25Z" fill="white"/>
<path d="M35 23.3333H7.29166V26.25H35V23.3333Z" fill="#7C6F66"/>
<path d="M35 29.1667H7.29166V32.0834H35V29.1667Z" fill="#7C6F66"/>
<path d="M27.7083 35H7.29166V37.9167H27.7083V35Z" fill="#7C6F66"/>
<path d="M18.9583 45.2083H7.29166V48.125H18.9583V45.2083Z" fill="#7C6F66"/>
<path d="M18.9583 52.5H7.29166V55.4167H18.9583V52.5Z" fill="#7C6F66"/>
</svg>
