<svg width="70" height="70" fill="none" xmlns="http://www.w3.org/2000/svg"><path d="M51.042 1.458H1.458v67.084h49.584V1.458Z" fill="#fff"/><path d="M49.583 61.25H2.917v5.833h46.666V61.25ZM11.667 17.5a5.833 5.833 0 1 0 0-11.667 5.833 5.833 0 0 0 0 11.667Z" fill="#FCD900"/><path d="M46.667 7.292h-26.25v2.916h26.25V7.292Zm-2.917 5.833H23.333v2.917H43.75v-2.917Z" fill="#7C6F66"/><path d="M68.542 8.75H36.458v23.333h32.084V8.75Z" fill="#FCD900"/><path d="M67.083 10.208H37.917v5.834h29.166v-5.834Z" fill="#fff"/><path d="M67.083 42.292h-35c-.805 0-1.458.653-1.458 1.458v23.333c0 .806.653 1.459 1.458 1.459h35c.806 0 1.459-.653 1.459-1.459V43.75c0-.805-.653-1.458-1.459-1.458Z" fill="#FCD900"/><path d="M70 33.542V7.292H52.5V0H0v70h67.083A2.916 2.916 0 0 0 70 67.083V43.75a2.917 2.917 0 0 0-2.917-2.917H52.5v-7.291H70Zm-2.917-23.334v20.417H37.917V10.208h29.166Zm0 33.542v23.333h-35V43.75h35Zm-17.5-2.917h-17.5a2.917 2.917 0 0 0-2.916 2.917v23.333H2.917V2.917h46.666v4.375H35v26.25h14.583v7.291Z" fill="#000"/><path d="M40.833 18.958v2.917H52.5v-2.917H40.833Zm0 5.834v2.916h17.5v-2.916h-17.5Z" fill="#000"/><path d="m32.083 43.75 17.5 13.125 17.5-13.125h-35Z" fill="#7C6F66"/><path d="M49.583 61.25a4.375 4.375 0 1 0 0-8.75 4.375 4.375 0 0 0 0 8.75Z" fill="#fff"/><path d="M35 23.333H7.292v2.917H35v-2.917Zm0 5.834H7.292v2.916H35v-2.916ZM27.708 35H7.292v2.917h20.416V35Zm-8.75 10.208H7.292v2.917h11.666v-2.917Zm0 7.292H7.292v2.917h11.666V52.5Z" fill="#7C6F66"/></svg>