<svg width="70" height="70" fill="none" xmlns="http://www.w3.org/2000/svg"><path d="M68.542 11.667H1.458v51.041h67.084V11.667Z" fill="#fff"/><path d="M13.125 17.5a2.917 2.917 0 0 1-2.917-2.917V8.75a2.917 2.917 0 0 1 5.834 0v5.833a2.917 2.917 0 0 1-2.917 2.917Zm14.583 0a2.917 2.917 0 0 1-2.916-2.917V8.75a2.917 2.917 0 0 1 5.833 0v5.833a2.917 2.917 0 0 1-2.917 2.917Zm14.584 0a2.916 2.916 0 0 1-2.917-2.917V8.75a2.917 2.917 0 0 1 5.833 0v5.833a2.917 2.917 0 0 1-2.916 2.917Zm14.583 0a2.917 2.917 0 0 1-2.917-2.917V8.75a2.917 2.917 0 0 1 5.834 0v5.833a2.917 2.917 0 0 1-2.917 2.917Z" fill="#7C6F66"/><path d="M59.792 37.917H48.125V61.25h11.667V37.917Z" fill="#FCD900"/><path d="M59.792 37.917H48.125l3.646-7.292h4.375l3.646 7.292Z" fill="#7C6F66"/><path d="M61.25 10.208V8.75a4.375 4.375 0 1 0-8.75 0v1.458h-5.833V8.75a4.375 4.375 0 0 0-8.75 0v1.458h-5.834V8.75a4.375 4.375 0 1 0-8.75 0v1.458H17.5V8.75a4.375 4.375 0 1 0-8.75 0v1.458H0v53.959h70V10.208h-8.75ZM55.417 8.75a1.458 1.458 0 1 1 2.916 0v5.833a1.458 1.458 0 1 1-2.916 0V8.75Zm-14.584 0a1.458 1.458 0 0 1 2.917 0v5.833a1.458 1.458 0 1 1-2.917 0V8.75Zm-14.583 0a1.458 1.458 0 1 1 2.917 0v5.833a1.458 1.458 0 0 1-2.917 0V8.75Zm-14.583 0a1.458 1.458 0 1 1 2.916 0v5.833a1.458 1.458 0 1 1-2.916 0V8.75Zm55.416 52.5H2.917V13.125H8.75v1.458a4.375 4.375 0 1 0 8.75 0v-1.458h5.833v1.458a4.375 4.375 0 0 0 8.75 0v-1.458h5.834v1.458a4.375 4.375 0 1 0 8.75 0v-1.458H52.5v1.458a4.375 4.375 0 1 0 8.75 0v-1.458h5.833V61.25Z" fill="#000"/><path d="M51.77 30.625h4.376l-2.188-4.375-2.187 4.375Zm-3.645-5.833a25.054 25.054 0 0 0-16.887 6.518 4.04 4.04 0 0 1-4.726.394l-.597-.364a7.028 7.028 0 0 0-7.948.54 4.054 4.054 0 0 1-5.688-.628l-2.391-2.99a1.458 1.458 0 0 0-2.275 1.809c2.377 2.916 3.879 5.614 7.83 5.614a6.971 6.971 0 0 0 4.376-1.458 4.068 4.068 0 0 1 4.623-.306l.598.364a6.971 6.971 0 0 0 8.093-.743 22.254 22.254 0 0 1 14.992-5.834 1.458 1.458 0 1 0 0-2.916Z" fill="#000"/><path d="M30.625 53.958H7.292v2.917h23.333v-2.917Zm-8.75-5.833H7.292v2.917h14.583v-2.917Z" fill="#7C6F66"/></svg>