<svg width="70" height="70" fill="none" xmlns="http://www.w3.org/2000/svg"><path d="M7.292 1.458H1.458v5.834h5.834V1.458Zm61.25 0h-5.834v5.834h5.834V1.458Zm-61.25 61.25H1.458v5.834h5.834v-5.834Zm61.25 0h-5.834v5.834h5.834v-5.834Z" fill="#7C6F66"/><path d="M53.958 23.333 35 33.542 16.042 23.333 35 13.125l18.958 10.208Z" fill="#FCD900"/><path d="M35 33.542v23.333L16.042 46.667V23.333L35 33.542Z" fill="#fff"/><path d="M53.958 23.333v23.334L35 56.875V33.542l18.958-10.209Z" fill="#7C6F66"/><path d="M0 8.75h8.75V0H0v8.75Zm2.917-5.833h2.916v2.916H2.917V2.917ZM61.25 0v8.75H70V0h-8.75Zm5.833 5.833h-2.916V2.917h2.916v2.916ZM20.417 2.917h-5.834v2.916h5.834V2.917Zm8.75 0h-5.834v2.916h5.834V2.917Zm8.75 0h-5.834v2.916h5.834V2.917Zm8.75 0h-5.834v2.916h5.834V2.917Zm8.75 0h-5.834v2.916h5.834V2.917ZM0 70h8.75v-8.75H0V70Zm2.917-5.833h2.916v2.916H2.917v-2.916ZM61.25 70H70v-8.75h-8.75V70Zm2.917-5.833h2.916v2.916h-2.916v-2.916Zm-43.75 0h-5.834v2.916h5.834v-2.916Zm8.75 0h-5.834v2.916h5.834v-2.916Zm8.75 0h-5.834v2.916h5.834v-2.916Zm8.75 0h-5.834v2.916h5.834v-2.916Zm8.75 0h-5.834v2.916h5.834v-2.916ZM5.833 14.583H2.917v5.834h2.916v-5.834Zm0 8.75H2.917v5.834h2.916v-5.834Zm0 8.75H2.917v5.834h2.916v-5.834Zm0 8.75H2.917v5.834h2.916v-5.834Zm0 8.75H2.917v5.834h2.916v-5.834Zm61.25 0h-2.916v5.834h2.916v-5.834Zm0-8.75h-2.916v5.834h2.916v-5.834Zm0-8.75h-2.916v5.834h2.916v-5.834Zm0-8.75h-2.916v5.834h2.916v-5.834Zm0-8.75h-2.916v5.834h2.916v-5.834ZM35 11.463 14.583 22.457v25.084L35 58.522l20.417-10.98V22.458c-2.086-1.108.977.54-20.417-10.995Zm0 3.325 15.881 8.545L35 31.88l-15.881-8.546L35 14.788ZM33.542 54.44 17.5 45.792V25.783l16.042 8.634V54.44ZM52.5 45.792 36.458 54.44V34.417L52.5 25.783v20.009Z" fill="#000"/></svg>