<svg width="70" height="70" fill="none" xmlns="http://www.w3.org/2000/svg"><path d="M65.625 1.458H4.375a2.917 2.917 0 0 0-2.917 2.917v61.25a2.917 2.917 0 0 0 2.917 2.917h61.25a2.917 2.917 0 0 0 2.917-2.917V4.375a2.917 2.917 0 0 0-2.917-2.917Z" fill="#fff"/><path d="M36.458 10.208h32.084V4.375a2.917 2.917 0 0 0-2.917-2.917H36.458v8.75Z" fill="#7C6F66"/><path d="M40.833 32.083a17.5 17.5 0 0 1-5.118 12.382l-5.09-5.09a10.209 10.209 0 0 0 2.917-7.292h7.291Z" fill="#FCD900"/><path d="M35.715 44.465a17.5 17.5 0 0 1-12.382 5.118v-7.291a10.209 10.209 0 0 0 7.292-2.917l5.09 5.09Z" fill="#7C6F66"/><path d="M23.333 42.292v7.291a17.5 17.5 0 0 1-12.38-5.118l5.162-5.09a10.208 10.208 0 0 0 7.218 2.917Z" fill="#FCD900"/><path d="m16.115 39.375-5.163 5.09a17.5 17.5 0 0 1-5.119-12.382h7.292a10.21 10.21 0 0 0 2.99 7.292Z" fill="#7C6F66"/><path d="M16.115 24.865a10.21 10.21 0 0 0-2.99 7.218H5.833a17.5 17.5 0 0 1 5.12-12.38l5.162 5.162Z" fill="#FCD900"/><path d="M23.333 14.583v7.292a10.21 10.21 0 0 0-7.218 2.99l-5.163-5.163a17.5 17.5 0 0 1 12.381-5.119Z" fill="#7C6F66"/><path d="m35.715 19.702-5.09 5.163a10.207 10.207 0 0 0-7.292-2.99v-7.292a17.5 17.5 0 0 1 12.382 5.12Z" fill="#FCD900"/><path d="M40.833 32.083h-7.291a10.208 10.208 0 0 0-2.917-7.218l5.163-5.163a17.5 17.5 0 0 1 5.045 12.381Z" fill="#7C6F66"/><path d="M23.333 36.458a4.375 4.375 0 1 0 0-8.75 4.375 4.375 0 0 0 0 8.75Zm39.375-13.125h-17.5v2.917h17.5v-2.917Z" fill="#FCD900"/><path d="M62.708 32.083h-17.5V35h17.5v-2.917Z" fill="#7C6F66"/><path d="M65.625 0H4.375A4.375 4.375 0 0 0 0 4.375v61.25A4.375 4.375 0 0 0 4.375 70h61.25A4.375 4.375 0 0 0 70 65.625V4.375A4.375 4.375 0 0 0 65.625 0Zm0 2.917a1.458 1.458 0 0 1 1.458 1.458V8.75H37.917V2.917h27.708Zm1.458 62.708a1.458 1.458 0 0 1-1.458 1.458H4.375a1.458 1.458 0 0 1-1.458-1.458V4.375a1.458 1.458 0 0 1 1.458-1.458H35v8.75h32.083v53.958Z" fill="#000"/><path d="M17.5 5.833H5.833V8.75H17.5V5.833Zm36.458 40.834h-8.75v2.916h8.75v-2.916Zm8.75-5.834h-17.5v2.917h17.5v-2.917Z" fill="#000"/><path d="M11.667 58.333H5.833v5.834h5.834v-5.834Z" fill="#7C6F66"/><path d="M20.417 58.333h-5.834v5.834h5.834v-5.834Z" fill="#FCD900"/><path d="M29.167 58.333h-5.834v5.834h5.834v-5.834Z" fill="#7C6F66"/><path d="M37.917 58.333h-5.834v5.834h5.834v-5.834Z" fill="#FCD900"/></svg>