<svg width="30" height="30" fill="none" xmlns="http://www.w3.org/2000/svg"><path d="M3.567 7.137a13.818 13.818 0 0 0-1.988 4.325h6.313L3.567 7.137Zm7.546-5.459A13.827 13.827 0 0 0 6.73 3.856l4.383 4.384V1.678ZM7.056 26.376a13.807 13.807 0 0 0 4.058 1.946v-6.003l-4.058 4.057Zm-5.317-7.278a13.825 13.825 0 0 0 2.06 4.091l4.092-4.091H1.739Z" fill="#29337A"/><path d="M3.796 6.815a14.21 14.21 0 0 0-.23.322l4.326 4.325H1.579a13.79 13.79 0 0 0-.254 1.188h8.307L3.796 6.815Zm2.938 19.332c.106.078.214.153.322.229l4.057-4.058v6.003c.39.114.786.213 1.189.292v-8.034l-5.568 5.568ZM1.43 17.909c.085.4.188.797.308 1.189h6.153l-4.092 4.091c.445.608.938 1.179 1.475 1.707l6.986-6.987H1.43Zm9.683-16.23v6.56L6.73 3.857c-.604.45-1.17.948-1.693 1.489l7.265 7.264V1.387c-.4.08-.797.177-1.189.291Z" fill="#fff"/><path d="m11.113 19.056-.041.042h.041v-.042Zm1.147-1.147h.042v-.042l-.042.042Zm5.34-5.259h-.04v.04l.04-.04Zm-6.446-1.188-.04-.041v.041h.04Zm1.148 1.147v.041h.04l-.04-.04Z" fill="#D32030"/><path d="M18.749 25.25v3.11a13.799 13.799 0 0 0 4.114-1.927l-3.37-3.37c-.27.946-.369 1.435-.744 2.187Zm.761-17.771 3.68-3.68a13.826 13.826 0 0 0-4.441-2.16v3.196c.433.867.47 1.525.761 2.644Zm6.634 15.791a13.839 13.839 0 0 0 2.118-4.172h-6.29l4.172 4.172Zm2.277-11.808a13.812 13.812 0 0 0-2.045-4.406l-4.406 4.406h6.45Z" fill="#252F6C"/><path d="m20.32 18.144.954.954 4.564 4.565c.104-.13.207-.26.306-.393l-4.173-4.172h6.291c.12-.392.223-.788.308-1.189h-8.16c-.014.169-.074.068-.09.235Zm-.954-9.97 4.137-4.137c-.103-.081-.208-.16-.313-.238l-3.68 3.68c.038.145-.18.546-.144.695Zm-.617-3.595V1.64c-.392-.11-.788-.202-1.188-.277v1.434c.442.48.838 1.082 1.188 1.783Zm1.478 8.071h8.448a13.71 13.71 0 0 0-.254-1.188H21.97l4.406-4.406c-.432-.618-.914-1.2-1.44-1.74l-4.963 4.963c.133.9.193 1.422.254 2.371Zm-.935 10.211 3.571 3.572a13.917 13.917 0 0 0 1.676-1.359l-4.698-4.698c-.15.87-.328 1.708-.55 2.485ZM17.56 27.04v1.598c.4-.074.796-.167 1.188-.277v-3.11c-.35.701-.746 1.31-1.188 1.789Z" fill="#E7E7E7"/><path d="m19.973 10.279 4.962-4.963a13.885 13.885 0 0 0-1.432-1.28l-3.9 3.9c.174.725.252 1.554.37 2.343Z" fill="#D71F28"/><path d="M15 28.878a14.002 14.002 0 0 0 2.56-.24v-1.6c-.728.791-1.581 1.84-2.56 1.84Z" fill="#D32030"/><path d="M28.675 12.65h-8.339c.11 1.74.097 3.53-.04 5.26h8.274a13.914 13.914 0 0 0 .105-5.26Zm-8.355 5.494c-.077.82-.346 1.46-.48 2.233l4.698 4.697c.465-.44.9-.912 1.3-1.412l-4.564-4.564-.954-.954Z" fill="#D71F28"/><path d="M17.56 2.9V1.362a13.945 13.945 0 0 0-2.56-.24c.979 0 1.832.988 2.56 1.778Z" fill="#D32030"/><path d="M18.749 25.85a14.94 14.94 0 0 0 .967-2.564l-.967-.967v3.53Zm1.087-18.698c-.292-1.118-.654-2.135-1.087-3.001v4.088l1.087-1.087Z" fill="#29337A"/><path d="M20.59 18.413c.015-.167.03-.335.043-.504h-.548l.504.504ZM18.748 8.24V4.151c-.35-.702-.746-1.304-1.188-1.783v7.611l2.386-2.387a27.75 27.75 0 0 0-.11-.44l-1.088 1.087ZM17.6 12.651h3.072a33.505 33.505 0 0 0-.29-2.782L17.6 12.651Zm-.04 14.982c.442-.479.838-1.081 1.188-1.783v-3.53l.967.967a23.82 23.82 0 0 0 .558-2.477l-2.713-2.713v9.536Z" fill="#fff"/><path d="M17.56 27.632v-9.536l2.714 2.713a31.35 31.35 0 0 0 .315-2.396l-.504-.504h.548a37.36 37.36 0 0 0 .04-5.259H17.6l2.782-2.782a26.64 26.64 0 0 0-.436-2.275L17.56 9.979V2.368c-.73-.79-1.582-1.245-2.561-1.245-.906 0-1.81.089-2.698.264v11.222L5.037 5.345a14.01 14.01 0 0 0-1.241 1.47l4.647 4.647 1.189 1.188H1.325A13.98 13.98 0 0 0 1.123 15c0 .998.107 1.97.307 2.91h10.83l-6.986 6.986c.457.45.945.868 1.46 1.25l5.568-5.567v8.034c.888.175 1.792.264 2.697.264.98 0 1.833-.454 2.562-1.245Z" fill="#E51D35"/></svg>