<svg width="57" height="57" fill="none" xmlns="http://www.w3.org/2000/svg"><g clip-path="url(#a)"><path d="M48.688 5.938h-47.5v7.125h47.5V5.936Z" fill="#FCD900"/><path d="M48.688 13.063h-47.5v40.374h47.5V13.063Z" fill="#fff"/><path d="M16.625 16.625h-4.75v4.75h4.75v-4.75Zm7.125 0H19v4.75h4.75v-4.75Zm7.125 0h-4.75v4.75h4.75v-4.75Zm14.25 0h-4.75v4.75h4.75v-4.75ZM9.5 23.75H4.75v4.75H9.5v-4.75Zm7.125 0h-4.75v4.75h4.75v-4.75Zm7.125 0H19v4.75h4.75v-4.75Zm7.125 0h-4.75v4.75h4.75v-4.75Zm7.125 0h-4.75v4.75H38v-4.75Zm7.125 0h-4.75v4.75h4.75v-4.75ZM9.5 30.875H4.75v4.75H9.5v-4.75Zm7.125 0h-4.75v4.75h4.75v-4.75Zm14.25 0h-4.75v4.75h4.75v-4.75Zm7.125 0h-4.75v4.75H38v-4.75Zm7.125 0h-4.75v4.75h4.75v-4.75ZM9.5 38H4.75v4.75H9.5V38Zm7.125 0h-4.75v4.75h4.75V38Zm7.125 0H19v4.75h4.75V38Zm7.125 0h-4.75v4.75h4.75V38ZM38 38h-4.75v4.75H38V38Zm7.125 0h-4.75v4.75h4.75V38ZM9.5 45.125H4.75v4.75H9.5v-4.75Zm7.125 0h-4.75v4.75h4.75v-4.75Zm7.125 0H19v4.75h4.75v-4.75Zm7.125 0h-4.75v4.75h4.75v-4.75Zm7.125 0h-4.75v4.75H38v-4.75Z" fill="#7C6F66"/><path d="M21.375 35.625a2.375 2.375 0 1 0 0-4.75 2.375 2.375 0 0 0 0 4.75Zm14.25-14.25a2.375 2.375 0 1 0 0-4.75 2.375 2.375 0 0 0 0 4.75Zm7.125 34.438c7.214 0 13.063-5.849 13.063-13.063s-5.85-13.063-13.063-13.063-13.063 5.85-13.063 13.063 5.849 13.063 13.063 13.063Z" fill="#FCD900"/><path d="M49.875 30.412V4.75h-4.75a4.75 4.75 0 0 0-9.5 0h-4.75a4.75 4.75 0 1 0-9.5 0h-4.75a4.75 4.75 0 1 0-9.5 0H0v49.875h34.889a14.25 14.25 0 1 0 14.986-24.213Zm-9.5-28.037A2.375 2.375 0 0 1 42.75 4.75H38a2.375 2.375 0 0 1 2.375-2.375Zm-14.25 0A2.375 2.375 0 0 1 28.5 4.75h-4.75a2.375 2.375 0 0 1 2.375-2.375Zm-14.25 0A2.375 2.375 0 0 1 14.25 4.75H9.5a2.375 2.375 0 0 1 2.375-2.375Zm-9.5 4.75h4.75V9.5H9.5V7.125h11.875V9.5h2.375V7.125h11.875V9.5H38V7.125h9.5v4.75H2.375v-4.75Zm0 45.125v-38H47.5v15.07a14.01 14.01 0 0 0-4.75-.82 14.25 14.25 0 0 0-10.604 23.75H2.375Zm47.5 0a11.875 11.875 0 0 1-14.25 0c-9.108-6.828-4.263-21.375 7.125-21.375s16.316 14.476 7.125 21.375Z" fill="#000"/><path d="m39.188 47.987-1.675-1.675 4.05-4.049V33.25h2.374v9.987l-4.75 4.75Z" fill="#fff"/></g><defs><clipPath id="a"><path fill="#fff" d="M0 0h57v57H0z"/></clipPath></defs></svg>