<svg width="64" height="64" fill="none" xmlns="http://www.w3.org/2000/svg"><g clip-path="url(#a)"><path d="M10 40c5.523 0 10-4.477 10-10s-4.477-10-10-10S0 24.477 0 30s4.477 10 10 10Zm44 0c5.523 0 10-4.477 10-10s-4.477-10-10-10-10 4.477-10 10 4.477 10 10 10ZM32 30c7.732 0 14-6.268 14-14S39.732 2 32 2 18 8.268 18 16s6.268 14 14 14Z" fill="#CFD3D6"/><path d="M48 26a8 8 0 1 0 0-16 8 8 0 0 0 0 16Zm-32 0a8 8 0 1 0 0-16 8 8 0 0 0 0 16Z" fill="#CFD3D6"/><path d="M54 22H10v18h44V22Z" fill="#CFD3D6"/><path d="M10 38c5.523 0 10-4.477 10-10s-4.477-10-10-10S0 22.477 0 28s4.477 10 10 10Zm44 0c5.523 0 10-4.477 10-10s-4.477-10-10-10-10 4.477-10 10 4.477 10 10 10ZM32 28c7.732 0 14-6.268 14-14S39.732 0 32 0 18 6.268 18 14s6.268 14 14 14Z" fill="#DFE3E6"/><path d="M48 24a8 8 0 1 0 0-16 8 8 0 0 0 0 16Zm-32 0a8 8 0 1 0 0-16 8 8 0 0 0 0 16Z" fill="#DFE3E6"/><path d="M54 20H10v18h44V20Z" fill="#DFE3E6"/><path d="M58 10a6 6 0 0 0-6-6m12 0a6 6 0 0 0-6 6l6-6ZM18 42v2m0 2v2m0 2v2m28-10v2m0 2v2m0 2v2M27 19h-2v44h2m10 0h2V19h-2m-12 4h14m-14 4h14m-14 4h14m-14 4h14m-14 4h14m-14 4h14m-14 4h14m-14 4h14m-14 4h14m-14 4h14" stroke="#5E5C5C" stroke-width="2" stroke-miterlimit="10"/></g><defs><clipPath id="a"><path fill="#fff" d="M0 0h64v64H0z"/></clipPath></defs></svg>