<svg width="57" height="57" fill="none" xmlns="http://www.w3.org/2000/svg"><g clip-path="url(#a)"><path d="M55.813 40.375H1.187v14.25h54.626v-14.25Z" fill="#7C6F66"/><path d="M55.813 40.375H1.187L4.75 19h47.5l3.563 21.375Z" fill="#FCD900"/><path d="M41.563 11.875h-4.75V19h4.75v-7.125Z" fill="#7C6F66"/><path d="M49.875 2.375H28.5v9.5h21.375v-9.5ZM23.75 9.5v16.625H9.5V9.5l3.563 1.188L16.625 9.5l3.563 1.188L23.75 9.5Zm10.688 14.25h-4.75v2.375h4.75V23.75Zm7.125 0h-4.75v2.375h4.75V23.75Zm7.125 0h-4.75v2.375h4.75V23.75Zm-14.25 4.75h-4.75v2.375h4.75V28.5Zm7.125 0h-4.75v2.375h4.75V28.5Zm7.125 0h-4.75v2.375h4.75V28.5Zm-14.25 4.75h-4.75v2.375h4.75V33.25Zm7.125 0h-4.75v2.375h4.75V33.25Zm7.125 0h-4.75v2.375h4.75V33.25ZM28.5 49.875a2.375 2.375 0 1 0 0-4.75 2.375 2.375 0 0 0 0 4.75Zm-19-1.187h11.875a1.188 1.188 0 0 0 0-2.376H9.5a1.187 1.187 0 1 0 0 2.376Zm26.125 0H47.5a1.188 1.188 0 0 0 0-2.376H35.625a1.188 1.188 0 0 0 0 2.376Z" fill="#fff"/><path d="M53.26 17.813H42.75v-4.75h8.313V1.187h-23.75v11.876h8.312v4.75H24.937V7.848L20.188 9.5l-3.562-1.188L13.062 9.5l-4.75-1.65v9.963H3.741C-.914 45.754 0 36.218 0 55.813h57c0-19.582.974-9.679-3.74-38Zm-23.572-7.125V3.561h19v7.126h-19ZM38 13.062h2.375v4.75H38v-4.75Zm-27.313-1.911 2.376.783 3.562-1.187 3.563 1.187 2.375-.783v13.787H10.688V11.15ZM5.76 20.188h2.553v4.75H7.125v2.375h19v-2.375h-1.188v-4.75h26.304l3.17 19H2.59l3.17-19Zm48.866 33.25H2.375V41.562h52.25v11.876Z" fill="#231F20"/></g><defs><clipPath id="a"><path fill="#fff" d="M0 0h57v57H0z"/></clipPath></defs></svg>