<svg width="56" height="56" fill="none" xmlns="http://www.w3.org/2000/svg"><g clip-path="url(#a)"><path d="M25.667 40.833c10.953 0 19.833-2.089 19.833-4.666 0-2.578-8.88-4.667-19.833-4.667-10.954 0-19.834 2.09-19.834 4.667s8.88 4.666 19.834 4.666Z" fill="#FCD900"/><path d="M45.5 36.167V45.5c0 2.578-8.878 4.667-19.833 4.667-10.955 0-19.834-2.089-19.834-4.667v-9.333c0 2.578 8.879 4.666 19.834 4.666S45.5 38.745 45.5 36.167Z" fill="#7C6F66"/><path d="M25.667 25.667C36.62 25.667 45.5 23.577 45.5 21s-8.88-4.667-19.833-4.667c-10.954 0-19.834 2.09-19.834 4.667s8.88 4.667 19.834 4.667Z" fill="#FCD900"/><path d="M45.5 21v9.333C45.5 32.912 36.622 35 25.667 35c-10.955 0-19.834-2.088-19.834-4.667V21c0 2.578 8.879 4.667 19.834 4.667S45.5 23.578 45.5 21Z" fill="#7C6F66"/><path d="M25.667 10.5C36.62 10.5 45.5 8.41 45.5 5.833s-8.88-4.666-19.833-4.666c-10.954 0-19.834 2.089-19.834 4.666 0 2.578 8.88 4.667 19.834 4.667Z" fill="#FCD900"/><path d="M45.5 5.833v9.334c0 2.578-8.878 4.666-19.833 4.666-10.955 0-19.834-2.088-19.834-4.666V5.833c0 2.579 8.879 4.667 19.834 4.667S45.5 8.412 45.5 5.833Z" fill="#7C6F66"/><path d="M54.833 46.667a8.167 8.167 0 0 1-8.166 8.166h-17.5a7 7 0 1 1 0-14c1.796 0 1.166.63 1.166-1.166a8.167 8.167 0 0 1 16.24-1.167 8.168 8.168 0 0 1 8.26 8.167Z" fill="#fff"/><path d="M36.167 54.833V49H31.5l7-8.167 7 8.167h-4.667v5.833" fill="#FCD900"/><path d="M47.542 37.333a9.24 9.24 0 0 0-2.614-4.456 3.173 3.173 0 0 0 1.739-2.544v-9.566a3.687 3.687 0 0 0-2.334-2.684c1.424-.77 2.334-1.726 2.334-2.916V5.6c-.735-7.467-41.23-7.467-42 0v9.567c0 1.166.875 2.146 2.333 2.916a3.687 3.687 0 0 0-2.333 2.684v9.566c0 1.167.875 2.147 2.333 2.917a3.687 3.687 0 0 0-2.333 2.683V45.5c0 3.897 9.45 5.378 17.091 5.74A8.167 8.167 0 0 0 29.167 56h17.5A9.333 9.333 0 0 0 56 46.667a9.252 9.252 0 0 0-8.458-9.334Zm-21.875-35c11.666 0 18.421 2.334 18.666 3.5-.221 1.167-7 3.5-18.666 3.5C14 9.333 7.222 7 7 5.833c.222-1.166 7-3.5 18.667-3.5ZM7 15.167c0-6.93 0-6.417.07-6.359 7.607 3.804 29.587 3.804 37.193 0 .07-.058.07-.746.07 6.359-.093.466-1.166 1.096-3.15 1.691-7.268 2.275-22.691 2.544-31.033 0-1.983-.595-3.057-1.225-3.15-1.691Zm34.183 4.141c1.984.595 3.057 1.225 3.15 1.692-.221 1.167-7 3.5-18.666 3.5C14 24.5 7.222 22.167 7 21c.093-.467 1.167-1.097 3.15-1.692 8.003 2.24 23.007 2.252 31.033 0ZM7 30.333c0-6.93 0-6.416.07-6.358 7.607 3.803 29.587 3.803 37.193 0 .117-.058.07-.747.07 6.358 0 .315-.56.7-1.481 1.097a9.333 9.333 0 0 0-11.457 2.205C18.433 34.58 7.338 32.025 7 30.333Zm22.89 5.729a9.425 9.425 0 0 0-.723 3.5 55.44 55.44 0 0 1-3.5.105C14 39.667 7.222 37.333 7 36.167c.093-.467 1.167-1.097 3.15-1.692 5.67 1.587 13.86 1.855 19.74 1.587ZM7 45.5c0-6.93 0-6.417.07-6.358 4.27 2.135 11.667 2.695 16.415 2.823a8.097 8.097 0 0 0-2.403 6.907C12.238 48.382 7.187 46.527 7 45.5Zm30.333 2.578c0-.35.49-.245-3.301-.245L38.5 42.63c4.282 4.982 3.383 3.92 4.468 5.203h-3.301v5.834h-2.334v-5.589Zm9.334 5.589H42v-3.5h6.032l-8.167-9.52-1.365-1.61c-1.995 2.333-6.405 7.466-9.532 11.13H35v3.5h-5.833a5.833 5.833 0 1 1 0-11.667c.875 0 1.481.338 2.076-.257a1.352 1.352 0 0 0 .327-1.248 7 7 0 0 1 4.002-7.187 23.123 23.123 0 0 1 3.021-.641 7 7 0 0 1 6.825 5.996 1.167 1.167 0 0 0 1.167 1.004 7 7 0 1 1 .082 14Z" fill="#000"/></g><defs><clipPath id="a"><path fill="#fff" d="M0 0h56v56H0z"/></clipPath></defs></svg>