<svg width="65" height="65" fill="none" xmlns="http://www.w3.org/2000/svg"><path d="M39.27 1.354H1.355v51.459h37.917V1.353Z" fill="#FCD900"/><path d="M18.958 2.708H32.5v14.896a1.354 1.354 0 0 1-1.354 1.354H20.312a1.354 1.354 0 0 1-1.354-1.354V2.708Z" fill="#fff"/><path d="M10.833 47.396a4.063 4.063 0 1 0 0-8.125 4.063 4.063 0 0 0 0 8.125Zm43.334 0h8.125a1.354 1.354 0 0 1 1.354 1.354v9.48H52.812v-9.48a1.354 1.354 0 0 1 1.355-1.354Z" fill="#7C6F66"/><path d="M44.688 12.188A10.833 10.833 0 0 1 55.52 23.02v24.375h5.416V23.02a16.25 16.25 0 0 0-16.25-16.25v5.417Z" fill="#FCD900"/><path d="M62.292 58.23h-8.125v5.416h8.125v-5.417Z" fill="#fff"/><path d="M44.688 5.417H39.27v8.125h5.416V5.417Z" fill="#7C6F66"/><path d="M65 48.75a2.708 2.708 0 0 0-2.708-2.708V23.02a17.604 17.604 0 0 0-16.25-17.537v-1.42h-5.417V0H0v54.167h40.625V14.896h5.417V13.65a9.479 9.479 0 0 1 8.125 9.37v23.022a2.708 2.708 0 0 0-2.709 2.708v10.833h1.355V65h10.833v-5.417H65V48.75Zm-27.083 2.708H2.708v-6.77h2.885a5.416 5.416 0 0 0 10.481 0h21.843v6.77Zm-27.084-5.416a2.708 2.708 0 1 1 0-5.417 2.708 2.708 0 0 1 0 5.417Zm27.084-4.063H16.074a5.417 5.417 0 0 0-10.481 0H2.708V2.71h35.209v39.27Zm2.708-35.208h2.708v5.417h-2.708V6.77Zm5.417 4.144v-2.79a14.896 14.896 0 0 1 13.541 14.896v23.02h-2.708v-23.02a12.187 12.187 0 0 0-10.833-12.106Zm8.125 37.835h8.125v8.125h-8.125V48.75Zm6.77 13.542h-5.416v-2.709h5.416v2.709Z" fill="#000"/></svg>