<svg width="60" height="60" fill="none" xmlns="http://www.w3.org/2000/svg"><g clip-path="url(#a)"><path d="M8.75 31.25h2.5v22.5h-2.5a7.5 7.5 0 0 1-7.5-7.5v-7.5a7.5 7.5 0 0 1 7.5-7.5Z" fill="#FCD900"/><path d="M15 56.25a3.75 3.75 0 0 1-3.75-3.75v-20a3.75 3.75 0 0 1 7.5 0v20A3.75 3.75 0 0 1 15 56.25Z" fill="#7C6F66"/><path d="M51.25 53.75h-2.5v-22.5h2.5a7.5 7.5 0 0 1 7.5 7.5v7.5a7.5 7.5 0 0 1-7.5 7.5Z" fill="#FCD900"/><path d="M45 56.25a3.75 3.75 0 0 0 3.75-3.75v-20a3.75 3.75 0 0 0-7.5 0v20A3.75 3.75 0 0 0 45 56.25Z" fill="#7C6F66"/><path d="M53.75 28.125V32.5a2.5 2.5 0 1 1-5 0c0-5.763.45-10.088-3.225-15.525C34.875 1.675 11.25 9.237 11.25 27.5v6.25a2.5 2.5 0 1 1-5 0V27.5a23.65 23.65 0 0 1 6.963-16.788C28.224-4.35 53.75 6.612 53.75 28.125Z" fill="#fff"/><path d="m45.525 16.975-.9.9a3.425 3.425 0 0 1-4.875-.075 13.751 13.751 0 0 0-19.575 0 3.35 3.35 0 0 1-4.788 0l-.912-.9a18.75 18.75 0 0 1 31.05.075Z" fill="#7C6F66"/><path d="M55 30.85v-2.725a25.176 25.176 0 0 0-15.725-23.75C22.413-2.5 5 10.275 5 27.5v3.35a8.75 8.75 0 0 0-5 7.9v7.5A8.75 8.75 0 0 0 8.75 55h1.925A5 5 0 0 0 20 52.5v-20a5 5 0 0 0-7.5-4.325 17.825 17.825 0 0 1 2.175-9.25 4.612 4.612 0 0 0 6.4-.175 12.5 12.5 0 0 1 17.787 0 4.65 4.65 0 0 0 6.425.262 17.5 17.5 0 0 1 2.213 9.175A5 5 0 0 0 40 32.5v20a5 5 0 0 0 9.325 2.5h1.925A8.75 8.75 0 0 0 60 46.25v-7.5a8.75 8.75 0 0 0-5-7.9ZM8.75 52.5a6.25 6.25 0 0 1-6.25-6.25v-7.5a6.25 6.25 0 0 1 2.5-5 3.75 3.75 0 0 0 5 3.525V52.5H8.75ZM15 30a2.5 2.5 0 0 1 2.5 2.5v20a2.5 2.5 0 0 1-5 0v-20A2.5 2.5 0 0 1 15 30Zm28.75-13a2.173 2.173 0 0 1-3.1-.075 15 15 0 0 0-21.35.063 2.137 2.137 0 0 1-3.175-.138 17.5 17.5 0 0 1 27.5-.363c.3.438.288.326.125.513Zm3.388.15c-7.875-11.325-20.325-11.75-28.6-6.025a20.774 20.774 0 0 0-5.688 6.038C9.512 22.687 10 27.075 10 33.75a1.25 1.25 0 0 1-2.5 0V27.5a22.263 22.263 0 0 1 6.6-15.9C28.212-2.6 52.5 7.575 52.5 28.125v4.5A1.252 1.252 0 0 1 50 32.5c0-5.75.388-10-2.875-15.35h.013ZM45 55a2.5 2.5 0 0 1-2.5-2.5v-20a2.5 2.5 0 0 1 5 0v20A2.5 2.5 0 0 1 45 55Zm12.5-8.75a6.25 6.25 0 0 1-6.25 6.25H50V36.025a3.751 3.751 0 0 0 4.825-2.413A6.25 6.25 0 0 1 57.5 38.75v7.5Z" fill="#000"/><path d="M31.25 30h-2.5v22.5h2.5V30Zm5 5h-2.5v12.5h2.5V35Zm-10 0h-2.5v12.5h2.5V35Z" fill="#000"/></g><defs><clipPath id="a"><path fill="#fff" d="M0 0h60v60H0z"/></clipPath></defs></svg>