<svg width="63" height="63" fill="none" xmlns="http://www.w3.org/2000/svg"><path d="M30.555 6.562C13.256 7.39 5.066 29.216 18.506 41.016a15.396 15.396 0 0 1 5.119 10.172c0 .13-.971 0 15.75 0a15.474 15.474 0 0 1 5.25-10.225c13.755-12.259 4.45-35.24-14.07-34.4Z" fill="#FCD900"/><path d="M31.5 61.688a7.875 7.875 0 0 1-7.875-7.876v-2.624h15.75v2.624a7.875 7.875 0 0 1-7.875 7.876Z" fill="#7C6F66"/><path d="M44.625 27.563v-2.625a1.313 1.313 0 0 0-1.313-1.313c-.748 0-1.614.118-1.981-.919-.368-1.037-.932-1.706-.158-2.48l.525-.512a1.313 1.313 0 0 0 0-1.838L39.821 16a1.313 1.313 0 0 0-1.837 0c-.512.512-1.037 1.208-2.035.735-.997-.472-1.824-.512-1.824-1.6v-.697a1.313 1.313 0 0 0-1.313-1.312h-2.624a1.313 1.313 0 0 0-1.313 1.313c0 .734.105 1.588-.919 1.955-1.023.368-1.706.945-2.48.17l-.538-.524a1.312 1.312 0 0 0-1.838 0l-1.877 1.877a1.313 1.313 0 0 0 0 1.837c.538.538 1.22 1.05.748 2.048-.472.997-.498 1.824-1.601 1.824h-.683a1.313 1.313 0 0 0-1.312 1.313v2.625a1.313 1.313 0 0 0 1.313 1.312c.787 0 1.627-.118 2.008.906.38 1.023.931 1.68.157 2.454l-.551.551a1.313 1.313 0 0 0 0 1.838l1.877 1.863a1.312 1.312 0 0 0 1.837 0c.578-.577 1.09-1.246 2.087-.774.998.473 1.824.525 1.824 1.614v.788a1.313 1.313 0 0 0 1.313 1.313h2.625a1.313 1.313 0 0 0 1.313-1.313c0-.827-.092-1.667.918-2.034 1.01-.368 1.667-.906 2.442-.145l.55.551a1.312 1.312 0 0 0 1.838 0l1.877-1.863a1.312 1.312 0 0 0 0-1.838c-.577-.577-1.247-1.076-.774-2.074.472-.997.538-1.837 1.627-1.837h.657a1.312 1.312 0 0 0 1.312-1.313Z" fill="#fff"/><path d="M31.5 31.5a5.25 5.25 0 1 0 0-10.5 5.25 5.25 0 0 0 0 10.5Z" fill="#FCD900"/><path d="M26.25 10.5A5.25 5.25 0 0 1 21 15.75H5.25a3.938 3.938 0 0 1 0-7.875c1.51 0 1.313.551 1.313 0a6.563 6.563 0 0 1 12.704-2.323A5.25 5.25 0 0 1 26.25 10.5Zm35.438 24.938a5.25 5.25 0 0 1-5.25 5.25h-15.75a3.937 3.937 0 0 1 0-7.876c1.509 0 1.312.552 1.312 0a6.562 6.562 0 0 1 12.705-2.323 5.249 5.249 0 0 1 6.983 4.948Z" fill="#fff"/><path d="M60.191 30.056a6.563 6.563 0 0 0-4.751-1.102 7.443 7.443 0 0 0-2.94-3.019 21 21 0 0 0-26.71-19.91 6.484 6.484 0 0 0-5.787-2.009C16.51-2.454 6.444-.669 5.342 6.562a5.25 5.25 0 1 0-.092 10.5h7.442A20.593 20.593 0 0 0 17.64 42a13.939 13.939 0 0 1 4.672 9.266v2.547a9.187 9.187 0 1 0 18.375 0v-2.507A14.175 14.175 0 0 1 45.36 42h11.078a6.563 6.563 0 0 0 3.753-11.944ZM5.25 14.437a2.625 2.625 0 0 1 0-5.25c.222-.015.444.011.656.08a1.313 1.313 0 0 0 1.969-1.392 5.25 5.25 0 0 1 10.172-1.85 1.312 1.312 0 0 0 1.64.76A3.937 3.937 0 1 1 21 14.438H5.25Zm32.813 39.376a6.563 6.563 0 1 1-13.126 0c0-1.457 0-1.313.145-1.313h12.98v1.313Zm.157-3.938H24.78a16.538 16.538 0 0 0-5.408-9.844 18.1 18.1 0 0 1-3.714-22.968H21a6.563 6.563 0 0 0 6.208-8.69 18.296 18.296 0 0 1 22.667 16.683 7.874 7.874 0 0 0-9.096 6.444 5.251 5.251 0 1 0-.092 10.5h1.064a16.668 16.668 0 0 0-3.531 7.875Zm18.218-10.5h-15.75a2.625 2.625 0 0 1 0-5.25 1.85 1.85 0 0 1 .656.079 1.312 1.312 0 0 0 1.968-1.392 5.25 5.25 0 0 1 10.172-1.85 1.312 1.312 0 0 0 1.667.761 3.86 3.86 0 0 1 3.544.486 3.938 3.938 0 0 1-2.258 7.166Z" fill="#000"/></svg>