<svg width="24" height="24" fill="none" xmlns="http://www.w3.org/2000/svg"><path d="M23.197 18.957c.115.346-.095.93-.47 1.304l-2.373 2.374c-.561.562-1.616.778-2.353.483l-1.097-.438C10.76 20.222 3.777 13.239 1.32 7.095L.88 6c-.294-.738-.078-1.792.484-2.354l2.374-2.373c.374-.375.958-.585 1.304-.47 1.9.634 3.958 2.69 4.591 4.59.115.346-.095.93-.47 1.305L7.807 8.054c-.375.374-.486 1.062-.25 1.536l.354.707c1.066 2.13 3.66 4.726 5.791 5.79l.707.355c.474.236 1.162.124 1.536-.25l1.357-1.356c.374-.375.959-.585 1.304-.47 1.9.634 3.958 2.69 4.591 4.591Z" fill="#000"/><path d="m11.08 4.355.087.962c.024.264.204.45.403.415 0 0 .368-.028.739-.017a6.094 6.094 0 0 1 4.174 1.8 6.113 6.113 0 0 1 1.804 4.178 7.475 7.475 0 0 1-.048 1.033.468.468 0 0 0 .35.573l.933.215a.488.488 0 0 0 .582-.358c.044-.177.117-.842.1-1.514A8.021 8.021 0 0 0 17.84 6.16a8.019 8.019 0 0 0-5.484-2.364c-.444-.012-.886.016-.886.016-.24.037-.414.28-.39.544Z" fill="#000"/><path fill-rule="evenodd" clip-rule="evenodd" d="m10.802 1.306.087.955c.024.263.238.452.477.421 0 0 .438-.023.875-.013a9.279 9.279 0 0 1 6.341 2.74l.007.007-.007-.007.003.004.004.003a9.269 9.269 0 0 1 2.74 6.341c.017.714-.056 1.429-.108 1.657a.481.481 0 0 0 .361.575l.936.216a.479.479 0 0 0 .573-.36c.088-.384.177-1.259.157-2.135a11.176 11.176 0 0 0-3.306-7.654l-.004-.003.004.003a11.156 11.156 0 0 0-7.65-3.303 13.892 13.892 0 0 0-1.057.017.498.498 0 0 0-.433.536Zm9.136 2.747.004.003-.004-.003Z" fill="#000"/></svg>